<?xml version="1.0" encoding="UTF-8"?>
<svg version="1.1" xmlns="http://www.w3.org/2000/svg" width="300" height="300">
<path d="M0 0 C99 0 198 0 300 0 C300 99 300 198 300 300 C201 300 102 300 0 300 C0 201 0 102 0 0 Z " fill="#000000" transform="translate(0,0)"/>
<path d="M0 0 C5.75070545 3.205011 9.60552611 7.75407834 11.6875 14 C11.77294291 15.33528807 11.80524625 16.67443888 11.80102539 18.01245117 C11.80094986 18.81305466 11.80087433 19.61365814 11.80079651 20.43852234 C11.79563522 21.29798965 11.79047394 22.15745697 11.78515625 23.04296875 C11.7837413 23.9265657 11.78232635 24.81016266 11.78086853 25.72053528 C11.77527069 28.54289128 11.76271861 31.36516797 11.75 34.1875 C11.74498472 36.10091031 11.74042186 38.01432187 11.73632812 39.92773438 C11.72530197 44.61852014 11.70803883 49.30924663 11.6875 54 C9.3775 54 7.0675 54 4.6875 54 C4.6875 48.72 4.6875 43.44 4.6875 38 C3.223125 38.825 1.75875 39.65 0.25 40.5 C-5.60576433 43.4072342 -10.14052465 44.0542898 -16.4765625 42.453125 C-22.82869926 40.3119553 -26.79097031 37.32327308 -30.125 31.4375 C-33.30780801 24.6200658 -33.423193 17.86313726 -31.25 10.6875 C-28.87636718 5.22366597 -24.33271459 2.37741904 -19.5625 -0.875 C-12.84226616 -3.20123479 -6.49667524 -2.90047643 0 0 Z " fill="#F7F7F7" transform="translate(128.3125,129)"/>
<path d="M0 0 C6.24487539 3.49438952 9.58955252 7.51668717 12.07885742 14.3581543 C13.34811883 19.60677679 12.98996254 25.01008164 12.875 30.375 C12.85469727 32.18097656 12.85469727 32.18097656 12.83398438 34.0234375 C12.79885352 36.97442973 12.74965996 39.92447412 12.6875 42.875 C10.0475 42.875 7.4075 42.875 4.6875 42.875 C4.1925 40.895 4.1925 40.895 3.6875 38.875 C3.15382812 39.16375 2.62015625 39.4525 2.0703125 39.75 C-4.46675085 43.00722188 -10.32112145 44.31655337 -17.4765625 42.25 C-23.96056835 39.44610558 -28.56943849 34.28533774 -31.75 28.0625 C-33.24778627 19.57504448 -33.07301275 13.37140741 -28.16796875 6.04296875 C-20.92192349 -2.42346308 -10.05009858 -4.69405802 0 0 Z " fill="#F6F6F6" transform="translate(178.3125,129.125)"/>
<path d="M0 0 C5.75070545 3.205011 9.60552611 7.75407834 11.6875 14 C11.77108958 16.21089945 11.79481764 18.42426078 11.78515625 20.63671875 C11.78193359 21.93544922 11.77871094 23.23417969 11.77539062 24.57226562 C11.76703531 25.94401108 11.75857037 27.31575587 11.75 28.6875 C11.74498335 30.07096195 11.74042073 31.45442563 11.73632812 32.83789062 C11.72452529 36.22530395 11.70806019 39.61263033 11.6875 43 C9.3775 43 7.0675 43 4.6875 43 C4.6875 41.35 4.6875 39.7 4.6875 38 C3.77871094 38.54140625 3.77871094 38.54140625 2.8515625 39.09375 C-3.30062976 42.50111802 -8.28008964 44.33222681 -15.3125 43 C-22.69774134 40.61836892 -27.48840977 36.74507428 -31.3125 30 C-33.30841928 24.01224217 -33.55133728 16.44952104 -31.40625 10.4765625 C-24.55964883 -0.97832792 -12.4197703 -5.57201175 0 0 Z " fill="#F5F5F5" transform="translate(253.3125,129)"/>
<path d="M0 0 C8.33448666 4.01290099 10.89942626 11.710681 13.890625 19.88671875 C14.24010193 20.82554398 14.58957886 21.7643692 14.949646 22.73164368 C15.68271803 24.70619245 16.41200195 26.68215131 17.13769531 28.65942383 C18.25140819 31.69133358 19.37866272 34.71795055 20.5078125 37.74414062 C21.21955406 39.66636914 21.93051892 41.58888546 22.640625 43.51171875 C22.97805725 44.41798508 23.3154895 45.3242514 23.66314697 46.25798035 C23.97056824 47.09927994 24.2779895 47.94057953 24.59472656 48.80737305 C24.86690002 49.54650436 25.13907349 50.28563568 25.41949463 51.04716492 C26 53 26 53 26 56 C23.36 56 20.72 56 18 56 C17.803992 55.48270325 17.60798401 54.96540649 17.40603638 54.43243408 C15.3645224 49.04579322 13.3200753 43.6602723 11.27392578 38.27539062 C10.51080338 36.26591065 9.74842788 34.25614686 8.98681641 32.24609375 C7.89161542 29.35601969 6.79372752 26.4669788 5.6953125 23.578125 C5.3556546 22.68007141 5.0159967 21.78201782 4.66604614 20.85675049 C4.18577469 19.5958963 4.18577469 19.5958963 3.69580078 18.30957031 C3.41600372 17.57232727 3.13620667 16.83508423 2.84793091 16.07550049 C1.31608161 11.77404339 1.31608161 11.77404339 -2 9 C-6.05142119 8.74139865 -7.54337669 8.69558446 -11 11 C-12.28158455 13.93115446 -12.28158455 13.93115446 -13.375 17.3125 C-15.675 23.68977273 -15.675 23.68977273 -18.75 26.625 C-21.83763424 29.88416947 -21.37557627 32.30568929 -21.5546875 36.6640625 C-22.45742069 43.42664272 -25.42394877 49.72136748 -28 56 C-30.64 56 -33.28 56 -36 56 C-35.34195096 50.62764231 -33.65442676 45.90658261 -31.76171875 40.875 C-31.43967972 40.00987793 -31.11764069 39.14475586 -30.7858429 38.25341797 C-30.10519767 36.43027837 -29.42172392 34.60819257 -28.7355957 32.78710938 C-27.69225354 30.01264067 -26.66303319 27.23321028 -25.63476562 24.453125 C-24.96960173 22.67676417 -24.30361323 20.90071185 -23.63671875 19.125 C-23.33239426 18.29983887 -23.02806976 17.47467773 -22.71452332 16.62451172 C-18.48325098 5.48948629 -12.81579908 -2.04551842 0 0 Z " fill="#F4F4F4" transform="translate(70,116)"/>
<path d="M0 0 C4.35530464 3.76139947 6.51430725 6.51891959 7.25 12.3125 C6.91307627 18.18620376 4.33396027 21.93838487 0.0625 25.8125 C-4.21434334 27.82987893 -7.6006839 28.20821077 -12.25 27.375 C-17.36762818 24.72141502 -20.42705942 21.84382174 -22.25 16.375 C-22.98154094 12.16032665 -23.10234072 8.77293245 -20.828125 5.04296875 C-15.20066875 -1.63061719 -8.2491076 -4.1245538 0 0 Z " fill="#050505" transform="translate(176.25,136.625)"/>
<path d="M0 0 C4.40802625 2.16394016 7.23139226 4.38196867 9 9 C9.6553676 14.29148659 9.62761871 18.59413408 7.4375 23.5 C3.58753304 27.44868406 -0.08055792 28.76006974 -5.5 29.4375 C-10.78434259 28.77695718 -14.22855582 26.8857309 -17.9375 22.9375 C-19.61498248 18.29975431 -19.64332654 13.86783745 -19 9 C-14.9446576 0.58891946 -8.83505793 -1.2742872 0 0 Z " fill="#040404" transform="translate(123,135)"/>
<path d="M0 0 C3.95594237 2.28227444 5.38229909 3.69134996 7.25 7.875 C8.05526207 12.51751091 8.34790797 16.82508546 6.07421875 21.0703125 C3.32052877 24.47151097 0.61427681 26.93979783 -3.75 27.875 C-8.55248543 28.33237957 -10.75193247 28.3834495 -15.0625 26.1875 C-18.66143525 23.09074176 -20.46948133 21.13992855 -21.06640625 16.3203125 C-21.26077715 11.69303113 -21.09555549 8.59170768 -19.0625 4.375 C-13.32850014 -1.82391877 -7.84029643 -2.35208893 0 0 Z " fill="#040404" transform="translate(249.75,136.125)"/>
<path d="M0 0 C0 2.64 0 5.28 0 8 C-0.60328125 8.15855469 -1.2065625 8.31710938 -1.828125 8.48046875 C-7.00548973 9.99192523 -10.10263207 11.17105344 -13 16 C-14.05836661 19.17509982 -14.20243789 21.64282383 -14.31640625 24.98046875 C-14.35830078 26.14384766 -14.40019531 27.30722656 -14.44335938 28.50585938 C-14.48267578 29.72080078 -14.52199219 30.93574219 -14.5625 32.1875 C-14.60568359 33.41404297 -14.64886719 34.64058594 -14.69335938 35.90429688 C-14.7995309 38.93608381 -14.90157952 41.96795315 -15 45 C-17.64 45 -20.28 45 -23 45 C-23.14677671 40.70870075 -23.23456586 36.41805776 -23.3125 32.125 C-23.3753418 30.31902344 -23.3753418 30.31902344 -23.43945312 28.4765625 C-23.55858413 19.70852037 -22.34115386 12.65106857 -16.19433594 6.06542969 C-11.18250289 1.43490036 -6.88209067 -0.32009724 0 0 Z " fill="#F3F3F3" transform="translate(219,127)"/>
<path d="M0 0 C2.875 1.625 2.875 1.625 5 4 C5.625 6.9375 5.625 6.9375 5 10 C2.51877621 13.35694984 1.05634831 14.78441871 -3.0625 15.625 C-6 15 -6 15 -8.4375 12.9375 C-10.47631034 9.10453656 -10.14831346 7.13392844 -9 3 C-6.74511844 -0.67901728 -4.07013941 -0.56981952 0 0 Z " fill="#F4F4F4" transform="translate(62,142)"/>
</svg>
