<?xml version="1.0" encoding="UTF-8"?>
<svg version="1.1" xmlns="http://www.w3.org/2000/svg" width="600" height="315">
<path d="M0 0 C198 0 396 0 600 0 C600 25.74 600 51.48 600 78 C402 78 204 78 0 78 C0 52.26 0 26.52 0 0 Z " fill="#FAFAFA" transform="translate(0,118)"/>
<path d="M0 0 C75.57 0 151.14 0 229 0 C229.88210024 4.4105012 230.36028608 8.67225308 230.68359375 13.140625 C230.74343445 13.93220001 230.80327515 14.72377502 230.8649292 15.53933716 C231.05865476 18.10935219 231.2481526 20.67965902 231.4375 23.25 C231.63601951 25.90547778 231.8354873 28.56088305 232.03511047 31.21627808 C232.16784757 32.98214191 232.30024355 34.74803142 232.43229675 36.51394653 C232.81523402 41.61787562 233.21635801 46.71965046 233.640625 51.8203125 C233.7341626 52.94663086 233.8277002 54.07294922 233.92407227 55.23339844 C234.09359672 57.25512286 234.26574867 59.27662958 234.44116211 61.29785156 C234.5160083 62.19729492 234.59085449 63.09673828 234.66796875 64.0234375 C234.76501099 65.15144775 234.76501099 65.15144775 234.86401367 66.30224609 C235.0603282 70.19681616 235 74.10048523 235 78 C157.45 78 79.9 78 0 78 C0 52.26 0 26.52 0 0 Z " fill="#FDF7F7" transform="translate(0,118)"/>
<path d="M0 0 C29.7 0 59.4 0 90 0 C90.88210024 4.4105012 91.36028608 8.67225308 91.68359375 13.140625 C91.74343445 13.93220001 91.80327515 14.72377502 91.8649292 15.53933716 C92.05865476 18.10935219 92.2481526 20.67965902 92.4375 23.25 C92.63601951 25.90547778 92.8354873 28.56088305 93.03511047 31.21627808 C93.16784757 32.98214191 93.30024355 34.74803142 93.43229675 36.51394653 C93.81523402 41.61787562 94.21635801 46.71965046 94.640625 51.8203125 C94.7341626 52.94663086 94.8277002 54.07294922 94.92407227 55.23339844 C95.09359672 57.25512286 95.26574867 59.27662958 95.44116211 61.29785156 C95.5160083 62.19729492 95.59085449 63.09673828 95.66796875 64.0234375 C95.76501099 65.15144775 95.76501099 65.15144775 95.86401367 66.30224609 C96.0603282 70.19681616 96 74.10048523 96 78 C55.41 78 14.82 78 -27 78 C-25.8749425 68.99954 -25.8749425 68.99954 -24.6965332 65.84155273 C-24.43568436 65.12978378 -24.17483551 64.41801483 -23.90608215 63.68467712 C-23.62383286 62.94181961 -23.34158356 62.1989621 -23.05078125 61.43359375 C-22.75568161 60.63703873 -22.46058197 59.8404837 -22.15653992 59.01979065 C-21.21655429 56.48928363 -20.26455614 53.96348672 -19.3125 51.4375 C-18.69260983 49.77046082 -18.0734634 48.10314488 -17.45507812 46.43554688 C-14.70080239 39.03435993 -11.88641044 31.66568286 -8.91796875 24.34765625 C-5.72786828 16.31475265 -2.87661881 8.15041996 0 0 Z " fill="#FDFAFA" transform="translate(139,118)"/>
<path d="M0 0 C33.33 0 66.66 0 101 0 C101 25.74 101 51.48 101 78 C59.09 78 17.18 78 -26 78 C-26 77.67 -26 77.34 -26 77 C-25.39414062 76.85304688 -24.78828125 76.70609375 -24.1640625 76.5546875 C-12.28839377 73.37566233 -3.63625435 67.69930779 2.73828125 57.11328125 C6.48292525 50.09726312 9.32264593 42.81753141 11.9375 35.3125 C12.24429688 34.45825439 12.55109375 33.60400879 12.8671875 32.72387695 C15.09645029 26.02260512 16.78860421 18.34356529 14.00341797 11.57983398 C10.68568226 5.64853797 5.97742841 2.9887142 0 0 Z " fill="#FCFCFC" transform="translate(499,118)"/>
<path d="M0 0 C34.32 0 68.64 0 104 0 C103.28388645 3.58056773 102.54692459 6.52801445 101.3203125 9.90234375 C100.97403809 10.86003662 100.62776367 11.81772949 100.27099609 12.80444336 C99.89281738 13.83835205 99.51463867 14.87226074 99.125 15.9375 C98.73006348 17.02490479 98.33512695 18.11230957 97.92822266 19.23266602 C96.62254676 22.82314788 95.31123837 26.41154621 94 30 C93.30273726 31.91519429 92.60615372 33.83063481 91.90957642 35.74607849 C90.96418852 38.34412891 90.01658765 40.94136794 89.06829834 43.5383606 C88.40168567 45.36440044 87.73621927 47.19085863 87.07080078 49.01733398 C83.51050248 58.73546097 79.75361146 68.34785625 76 78 C52.9 78 29.8 78 6 78 C4.74664865 66.71983786 3.62258258 55.61613208 3 44.3125 C2.83988231 41.54142555 2.67503707 38.77065417 2.5078125 36 C2.446436 34.98181938 2.446436 34.98181938 2.38381958 33.94306946 C1.93128311 26.61340346 1.2977495 19.30227061 0.609375 11.99145508 C0.52945313 11.13447021 0.44953125 10.27748535 0.3671875 9.39453125 C0.29612793 8.66081299 0.22506836 7.92709473 0.15185547 7.17114258 C-0.01496405 4.78605261 0 2.39091675 0 0 Z " fill="#FBFBFB" transform="translate(229,118)"/>
<path d="M0 0 C1.03253906 -0.01160156 2.06507813 -0.02320312 3.12890625 -0.03515625 C10.09938863 -0.00851746 16.32093407 0.41785248 21.8984375 5.05859375 C22.34445312 5.63738281 22.79046875 6.21617188 23.25 6.8125 C23.94222656 7.67681641 23.94222656 7.67681641 24.6484375 8.55859375 C28.3877917 14.09617242 28.51417387 18.80170193 27.875 25.375 C26.96393226 29.30927849 25.66467936 33.0334487 24.25 36.8125 C23.88390625 37.81877441 23.5178125 38.82504883 23.140625 39.86181641 C17.86746787 54.10256723 12.27311651 66.03326508 -1.2421875 74.0859375 C-9.92518317 77.96857784 -17.84294749 78.87219345 -27.3125 78.8125 C-28.44880859 78.83248047 -29.58511719 78.85246094 -30.75585938 78.87304688 C-38.41581283 78.86858043 -43.06488154 78.09135557 -48.83203125 72.8125 C-53.95827168 66.14657604 -54.84424042 61.7237215 -54.125 53.375 C-53.40381716 49.84541535 -52.33271943 46.51586747 -51.125 43.125 C-50.81248291 42.22185059 -50.49996582 41.31870117 -50.17797852 40.38818359 C-44.56861611 24.72194651 -37.57347656 11.06118784 -22.125 3.375 C-14.75119297 0.45512566 -7.87423957 -0.08914233 0 0 Z " fill="#747273" transform="translate(487.125,117.625)"/>
<path d="M0 0 C0.9583374 0.00523682 1.9166748 0.01047363 2.90405273 0.01586914 C4.45576172 0.02070312 4.45576172 0.02070312 6.03881836 0.02563477 C7.12743164 0.03401367 8.21604492 0.04239258 9.33764648 0.05102539 C10.97636719 0.05779297 10.97636719 0.05779297 12.64819336 0.06469727 C15.35723144 0.07652713 18.06616248 0.09300996 20.77514648 0.11352539 C17.57647657 9.83203738 14.24781414 19.48927504 10.77514648 29.11352539 C19.68514648 29.11352539 28.59514648 29.11352539 37.77514648 29.11352539 C38.76514648 25.81352539 39.75514648 22.51352539 40.77514648 19.11352539 C41.36187624 17.39515174 41.96442854 15.68186403 42.59936523 13.98071289 C42.87611084 13.23418457 43.15285645 12.48765625 43.43798828 11.71850586 C43.94519409 10.36716553 43.94519409 10.36716553 44.46264648 8.98852539 C45.55577148 6.05977539 46.64889648 3.13102539 47.77514648 0.11352539 C55.36514648 0.11352539 62.95514648 0.11352539 70.77514648 0.11352539 C70.02491724 3.8646716 69.19882764 6.97620239 67.9050293 10.52368164 C67.52082825 11.58248535 67.1366272 12.64128906 66.74078369 13.73217773 C66.11584015 15.43688232 66.11584015 15.43688232 65.47827148 17.17602539 C65.0476239 18.35890137 64.61697632 19.54177734 64.17327881 20.76049805 C63.26034897 23.26601396 62.34610217 25.77099758 61.42944336 28.27514648 C60.04036141 32.0699678 58.65757997 35.86705809 57.27514648 39.66430664 C56.3848188 42.10582133 55.49420273 44.54723088 54.60327148 46.98852539 C54.19473938 48.10880127 53.78620728 49.22907715 53.36529541 50.38330078 C52.17688907 53.62983797 50.97645154 56.87174241 49.77514648 60.11352539 C49.34375366 61.30236328 48.91236084 62.49120117 48.46789551 63.71606445 C48.03658325 64.88105469 47.605271 66.04604492 47.16088867 67.24633789 C46.77519714 68.29966309 46.38950562 69.35298828 45.99212646 70.43823242 C44.8357846 72.98022432 43.96622961 74.41870222 41.77514648 76.11352539 C39.50683594 76.45410156 39.50683594 76.45410156 36.88842773 76.40649414 C35.95063477 76.39682617 35.0128418 76.3871582 34.04663086 76.37719727 C33.07016602 76.35206055 32.09370117 76.32692383 31.08764648 76.30102539 C30.09958008 76.28749023 29.11151367 76.27395508 28.09350586 76.26000977 C25.65350418 76.22464742 23.2145993 76.17529572 20.77514648 76.11352539 C21.4905753 71.85298661 22.81711551 67.89407831 24.27905273 63.84399414 C24.64316505 62.82249016 24.64316505 62.82249016 25.01463318 61.78034973 C25.78573237 59.61940135 26.56161209 57.46020573 27.33764648 55.30102539 C27.86335439 53.83043565 28.38874841 52.35973366 28.91381836 50.88891602 C30.19671627 47.29558585 31.48607266 43.70466845 32.77514648 40.11352539 C23.86514648 40.11352539 14.95514648 40.11352539 5.77514648 40.11352539 C4.78514648 43.41352539 3.79514648 46.71352539 2.77514648 50.11352539 C1.29939842 54.49161973 -0.27750269 58.83177221 -1.84985352 63.17602539 C-2.25719727 64.31491211 -2.66454102 65.45379883 -3.08422852 66.62719727 C-3.47352539 67.70678711 -3.86282227 68.78637695 -4.26391602 69.89868164 C-4.61663574 70.87716064 -4.96935547 71.85563965 -5.33276367 72.86376953 C-6.22485352 75.11352539 -6.22485352 75.11352539 -7.22485352 76.11352539 C-8.93257709 76.20066371 -10.64384 76.22052546 -12.35375977 76.21118164 C-13.90546875 76.20634766 -13.90546875 76.20634766 -15.48852539 76.20141602 C-16.57713867 76.19303711 -17.66575195 76.1846582 -18.78735352 76.17602539 C-20.42607422 76.16925781 -20.42607422 76.16925781 -22.09790039 76.16235352 C-24.80693847 76.15052366 -27.51586951 76.13404082 -30.22485352 76.11352539 C-26.7664909 65.51769099 -23.13188709 55.02880214 -19.16870117 44.61108398 C-17.14132167 39.24634204 -15.15457802 33.86639689 -13.16235352 28.48852539 C-12.72834229 27.31829834 -12.29433105 26.14807129 -11.84716797 24.94238281 C-9.1877841 17.75844093 -6.57539111 10.56169425 -4.06469727 3.32446289 C-2.85725244 0.14579418 -2.85725244 0.14579418 0 0 Z " fill="#C91A1A" transform="translate(30.224853515625,118.886474609375)"/>
<path d="M0 0 C7.92 0 15.84 0 24 0 C20 11.3125 20 11.3125 18.734375 14.8684082 C18.40953125 15.79484131 18.0846875 16.72127441 17.75 17.67578125 C17.41484375 18.62364502 17.0796875 19.57150879 16.734375 20.5480957 C15.85654047 23.05239079 15.85654047 23.05239079 16 26 C16.71579224 25.4423999 16.71579224 25.4423999 17.44604492 24.87353516 C33.51956853 12.35497423 33.51956853 12.35497423 41.4375 6.25 C42.95150391 5.08210938 42.95150391 5.08210938 44.49609375 3.890625 C49.98757121 -0.255826 49.98757121 -0.255826 54.01171875 -0.1953125 C54.76904297 -0.18886719 55.52636719 -0.18242188 56.30664062 -0.17578125 C57.09232422 -0.15902344 57.87800781 -0.14226562 58.6875 -0.125 C59.48478516 -0.11597656 60.28207031 -0.10695313 61.10351562 -0.09765625 C63.069139 -0.07411585 65.03460775 -0.03824547 67 0 C63.54312335 3.59032226 59.9871607 6.67220972 56 9.6875 C54.85409857 10.55850417 53.70826737 11.42960074 52.5625 12.30078125 C51.97726563 12.74373535 51.39203125 13.18668945 50.7890625 13.64306641 C47.84872751 15.87319494 44.92472505 18.1244646 42 20.375 C40.453125 21.56222656 40.453125 21.56222656 38.875 22.7734375 C36.22833605 24.82316366 33.60740163 26.90065825 31 29 C32.54539296 34.28289225 34.90442454 38.86813966 37.5 43.6875 C37.93489746 44.50605469 38.36979492 45.32460937 38.81787109 46.16796875 C40.68452298 49.68040659 42.56265432 53.18658429 44.44628906 56.68994141 C45.39169821 58.44932791 46.33479633 60.20995853 47.27539062 61.97192383 C48.16177207 63.6322856 49.05353994 65.28978523 49.95117188 66.9440918 C50.35142578 67.694729 50.75167969 68.44536621 51.1640625 69.21875 C51.51936035 69.87810547 51.8746582 70.53746094 52.24072266 71.21679688 C53 73 53 73 53 76 C49.27189132 76.23292281 45.54565008 76.37459124 41.8125 76.5 C40.22985352 76.60054687 40.22985352 76.60054687 38.61523438 76.703125 C31.04325204 76.89421604 31.04325204 76.89421604 28.36791992 74.60107422 C27.00180899 72.47001824 26.0126764 70.32023695 25 68 C23.97131479 66.0810449 22.93294612 64.16726013 21.88671875 62.2578125 C20.81690556 60.21532253 19.75055086 58.17101769 18.6875 56.125 C18.13771484 55.08085937 17.58792969 54.03671875 17.02148438 52.9609375 C16.50263672 51.96578125 15.98378906 50.970625 15.44921875 49.9453125 C14.97830811 49.04312988 14.50739746 48.14094727 14.0222168 47.21142578 C13 45 13 45 13 43 C8.39596934 45.22648558 6.62239658 47.1581363 4.76953125 51.95703125 C4.09658057 53.9018455 3.444784 55.85408687 2.8125 57.8125 C2.1540001 59.7570721 1.49387826 61.70109581 0.83203125 63.64453125 C0.55077393 64.50409424 0.2695166 65.36365723 -0.02026367 66.24926758 C-1.19814111 69.55630598 -2.61713015 72.77330367 -4 76 C-11.59 76 -19.18 76 -27 76 C-23.62504859 64.75016197 -23.62504859 64.75016197 -21.97875977 60.26586914 C-21.61150284 59.26104996 -21.24424591 58.25623077 -20.86585999 57.22096252 C-20.47829025 56.16964645 -20.09072052 55.11833038 -19.69140625 54.03515625 C-19.28341293 52.9211998 -18.87541962 51.80724335 -18.45506287 50.65953064 C-17.16027319 47.12617828 -15.86148262 43.59431275 -14.5625 40.0625 C-13.69439048 37.69606293 -12.82654954 35.32952732 -11.95898438 32.96289062 C-10.35788 28.59581667 -8.7550055 24.22940026 -7.15063477 19.86352539 C-3.4755359 9.96694539 -3.4755359 9.96694539 0 0 Z " fill="#C91A1A" transform="translate(154,119)"/>
<path d="M0 0 C2.08153935 -0.13536022 4.16561206 -0.23215465 6.25 -0.3125 C7.41015625 -0.37050781 8.5703125 -0.42851563 9.765625 -0.48828125 C13 0 13 0 15.0246582 2.1184082 C17.13762757 5.20076854 18.47669284 8.11618973 19.83984375 11.59375 C20.08867813 12.22172485 20.33751251 12.84969971 20.59388733 13.4967041 C21.38329501 15.49468793 22.16052525 17.49715328 22.9375 19.5 C23.4542895 20.81281072 23.9718619 22.12531352 24.49023438 23.4375 C25.75901366 26.65597463 27.01408831 29.87956998 28.26385498 33.10546875 C29.00178867 35.00460329 29.74660065 36.90092594 30.49267578 38.796875 C30.95013184 39.96734375 31.40758789 41.1378125 31.87890625 42.34375 C32.28826416 43.38724609 32.69762207 44.43074219 33.11938477 45.50585938 C34 48 34 48 34 50 C34.66 50 35.32 50 36 50 C36.25910156 48.71222656 36.51820313 47.42445313 36.78515625 46.09765625 C37.91244408 41.03031402 39.58764853 36.2801048 41.4375 31.4375 C41.73720703 30.63892578 42.03691406 29.84035156 42.34570312 29.01757812 C43.22531355 26.67640244 44.1125155 24.33819967 45 22 C45.52028048 20.61486453 46.03984809 19.22946101 46.55859375 17.84375 C47.9066923 14.24717559 49.25938615 10.65247259 50.625 7.0625 C51.05039062 5.93972656 51.47578125 4.81695312 51.9140625 3.66015625 C53 1 53 1 54 0 C55.85287502 -0.07226502 57.70833878 -0.0838122 59.5625 -0.0625 C60.57441406 -0.05347656 61.58632813 -0.04445313 62.62890625 -0.03515625 C63.41136719 -0.02355469 64.19382812 -0.01195313 65 0 C42.7254902 64.54901961 42.7254902 64.54901961 37 76 C34.75237987 76.16226135 32.50140288 76.27851131 30.25 76.375 C28.37054687 76.47941406 28.37054687 76.47941406 26.453125 76.5859375 C23 76 23 76 20.94799805 73.37939453 C19.04192794 70.07273675 17.66747238 66.93189149 16.37890625 63.34375 C16.15226791 62.71956177 15.92562958 62.09537354 15.69212341 61.45227051 C14.97468258 59.47081278 14.26841692 57.48558838 13.5625 55.5 C13.09383293 54.20025594 12.6244366 52.9007746 12.15429688 51.6015625 C10.99345916 48.38735404 9.84215489 45.16984426 8.69512939 41.95068359 C7.97746082 39.93675018 7.25821166 37.92338691 6.53857422 35.91015625 C5.35801111 32.60714105 4.17865583 29.30369636 3 26 C1.3490215 28.47646775 0.42771005 30.2720218 -0.55639648 33.0090332 C-0.84687363 33.81029129 -1.13735077 34.61154938 -1.43663025 35.43708801 C-1.7450032 36.29960678 -2.05337616 37.16212555 -2.37109375 38.05078125 C-2.85558739 39.38812569 -2.85558739 39.38812569 -3.34986877 40.75248718 C-4.38289472 43.60446287 -5.41076052 46.45825559 -6.4375 49.3125 C-7.78616361 53.06012797 -9.13975395 56.8059257 -10.49609375 60.55078125 C-10.80244247 61.40722733 -11.1087912 62.2636734 -11.42442322 63.14607239 C-13.03404401 67.59025768 -14.77536412 71.81571726 -17 76 C-20.3 76 -23.6 76 -27 76 C-26.41519155 70.51843142 -25.03723698 65.81361777 -23.0859375 60.671875 C-22.79320953 59.88339172 -22.50048157 59.09490845 -22.19888306 58.28253174 C-21.26414056 55.76918663 -20.31983982 53.25956431 -19.375 50.75 C-18.7636711 49.11222232 -18.15298905 47.47420304 -17.54296875 45.8359375 C-16.31964529 42.55247736 -15.09229965 39.27055974 -13.86254883 35.98950195 C-11.67038046 30.13118445 -9.51549724 24.25917524 -7.37203979 18.38287354 C-5.09705089 12.17491228 -2.62821289 6.06790165 0 0 Z " fill="#757274" transform="translate(535,119)"/>
<path d="M0 0 C1.04085251 0.00007553 2.08170502 0.00015106 3.15409851 0.00022888 C4.27605118 0.00539017 5.39800385 0.01055145 6.55395508 0.01586914 C8.27887932 0.01799156 8.27887932 0.01799156 10.03865051 0.02015686 C13.71695541 0.02576111 17.39519978 0.03831435 21.07348633 0.05102539 C23.56502191 0.05603984 26.05655844 0.06060284 28.5480957 0.06469727 C34.66074662 0.07573192 40.77336215 0.09247421 46.88598633 0.11352539 C46.13598633 6.73852539 46.13598633 6.73852539 43.88598633 10.11352539 C40.80379068 10.41428326 37.91214093 10.53040116 34.82739258 10.51977539 C33.92729965 10.53061157 33.02720673 10.54144775 32.09983826 10.5526123 C29.21598141 10.58697387 26.33252131 10.6024874 23.44848633 10.61352539 C19.65773782 10.62806023 15.86788058 10.66169032 12.07739258 10.70727539 C11.20232559 10.70425415 10.32725861 10.70123291 9.42567444 10.69812012 C8.61150558 10.7082312 7.79733673 10.71834229 6.95849609 10.72875977 C5.88499657 10.73184143 5.88499657 10.73184143 4.78981018 10.73498535 C2.29265559 11.2314982 1.42274425 12.11224725 -0.11401367 14.11352539 C-1.11532852 17.48300868 -1.11532852 17.48300868 -0.11401367 21.11352539 C4.81694878 26.10919864 12.34691593 29.05360908 18.56787109 32.22265625 C26.02797442 36.0674562 30.99200534 40.13135651 33.88598633 48.11352539 C34.87346553 54.59172947 34.5865434 60.63651336 31.22192383 66.36352539 C27.60382721 71.10302038 23.51625427 74.17439568 17.88598633 76.11352539 C15.27262878 76.35403442 15.27262878 76.35403442 12.453125 76.34057617 C10.8620417 76.34034958 10.8620417 76.34034958 9.23881531 76.34011841 C7.53855949 76.32463455 7.53855949 76.32463455 5.80395508 76.30883789 C4.63463943 76.306008 3.46532379 76.3031781 2.26057434 76.30026245 C-1.46855975 76.28908101 -5.19745235 76.26397973 -8.92651367 76.23852539 C-11.45710916 76.22849298 -13.98770841 76.21936758 -16.51831055 76.21118164 C-22.71697109 76.18914827 -28.91545145 76.15463201 -35.11401367 76.11352539 C-34.12401367 72.81352539 -33.13401367 69.51352539 -32.11401367 66.11352539 C-30.95877197 66.09894287 -29.80353027 66.08436035 -28.61328125 66.06933594 C-24.31723455 66.01125717 -20.02170674 65.93402489 -15.72607422 65.85107422 C-13.86873817 65.8178699 -12.01130231 65.78982398 -10.15380859 65.76708984 C-7.4799557 65.73346097 -4.80701374 65.68114165 -2.13354492 65.62524414 C-0.89263847 65.61565926 -0.89263847 65.61565926 0.37333679 65.60588074 C5.44547573 65.47723562 9.12321951 64.87629221 12.88598633 61.11352539 C13.45600076 55.65302565 13.45600076 55.65302565 11.48364258 50.71508789 C7.12436245 46.34925245 1.69082641 43.72472491 -3.67260742 40.75024414 C-10.1023517 37.0610466 -14.75172482 33.19384249 -18.48901367 26.73852539 C-20.08182656 20.04871127 -19.66544653 14.10656835 -16.11401367 8.11352539 C-11.10945533 2.90044378 -7.38624217 -0.01788436 0 0 Z " fill="#747173" transform="translate(355.114013671875,118.886474609375)"/>
<path d="M0 0 C7.26 0 14.52 0 22 0 C22.41572266 4.65996094 22.41572266 4.65996094 22.83984375 9.4140625 C23.11069965 12.43250395 23.38233857 15.45087398 23.65405273 18.46923828 C23.84204613 20.56226385 24.02922915 22.65536237 24.21557617 24.74853516 C24.48401793 27.76224129 24.7554009 30.77567052 25.02734375 33.7890625 C25.10967758 34.72054108 25.19201141 35.65201965 25.27684021 36.61172485 C25.68602786 41.11472044 26.17241552 45.5497208 27 50 C27.58193115 49.12456543 28.1638623 48.24913086 28.76342773 47.34716797 C34.97955436 38.00458712 41.23897646 28.69189341 47.52612305 19.39697266 C49.09344817 17.07923429 50.65903477 14.76032731 52.22460938 12.44140625 C53.2238536 10.96347085 54.22319853 9.48560353 55.22265625 8.0078125 C55.92250389 6.97057541 55.92250389 6.97057541 56.63648987 5.91238403 C59.8856055 1.1143945 59.8856055 1.1143945 61 0 C63.01964199 -0.07244053 65.04167124 -0.08377188 67.0625 -0.0625 C68.16722656 -0.05347656 69.27195312 -0.04445313 70.41015625 -0.03515625 C71.26480469 -0.02355469 72.11945313 -0.01195313 73 0 C71.30180518 5.22470931 68.16503302 9.45351165 65.09375 13.9453125 C64.20445549 15.25846436 64.20445549 15.25846436 63.29719543 16.59814453 C61.36913481 19.44340008 59.4346682 22.28423421 57.5 25.125 C54.85634992 29.01966561 52.21542187 32.91617472 49.57421875 36.8125 C48.92172653 37.77398956 48.26923431 38.73547913 47.5969696 39.72610474 C43.7485541 45.40139041 39.92653509 51.09274921 36.14453125 56.8125 C35.71965424 57.45444305 35.29477722 58.09638611 34.85702515 58.75778198 C33.29738125 61.11596541 31.73867699 63.47469114 30.18896484 65.8394165 C29.16750176 67.39802233 28.14056581 68.95303746 27.11328125 70.5078125 C26.27470581 71.78615967 26.27470581 71.78615967 25.41918945 73.09033203 C24 75 24 75 22 76 C19.28239892 76.07181821 16.59140612 76.09299506 13.875 76.0625 C13.12089844 76.05798828 12.36679688 76.05347656 11.58984375 76.04882812 C9.72652873 76.03703499 7.86325445 76.01909942 6 76 C4.36690337 64.46408336 3.55929388 52.91087704 2.87756348 41.28747559 C2.28189778 31.14337764 1.55370513 21.0223754 0.609375 10.90380859 C0.52945313 10.04352051 0.44953125 9.18323242 0.3671875 8.296875 C0.29612793 7.55791992 0.22506836 6.81896484 0.15185547 6.05761719 C0.00319232 4.04325543 0 2.01984009 0 0 Z " fill="#757274" transform="translate(229,119)"/>
<path d="M0 0 C6.6 0 13.2 0 20 0 C17 2 17 2 14.1875 3.1875 C9.87667763 5.63875193 5.95447848 9.11931494 4.3515625 13.95703125 C3.28016651 20.18303242 3.44666518 25.60298422 6.63671875 31.171875 C10.03042464 35.72274708 14.85114026 38.34207609 19.6796875 41.16015625 C20.66714966 41.73938843 20.66714966 41.73938843 21.67456055 42.33032227 C22.98625747 43.09252238 24.30521673 43.84240042 25.63208008 44.57788086 C30.46826729 47.35245404 35.01561495 50.56382361 36.62890625 56.1953125 C36.51101391 59.62112521 36.25070233 61.66284859 34.1875 64.4375 C29.78941432 67.57898977 25.35322179 67.12955985 20.17578125 67.09765625 C19.31438034 67.0962413 18.45297943 67.09482635 17.56547546 67.09336853 C14.81444831 67.0877714 12.06350256 67.07521946 9.3125 67.0625 C7.4472668 67.05748463 5.58203233 67.05292179 3.71679688 67.04882812 C-0.85550011 67.03780292 -5.42773625 67.02054027 -10 67 C-10.12375 67.70125 -10.2475 68.4025 -10.375 69.125 C-11.03035014 72.13961064 -12.02443037 75.0732911 -13 78 C-17.95 78 -22.9 78 -28 78 C-25.20051955 67.99004962 -21.53110735 58.30734701 -17.9375 48.5625 C-17.26532092 46.73323612 -16.59336611 44.9038898 -15.92163086 43.07446289 C-13.95232217 37.71462056 -11.97728947 32.35690267 -10 27 C-9.71547974 26.22910034 -9.43095947 25.45820068 -9.13781738 24.66394043 C-6.10143898 16.43907269 -3.05559411 8.21775074 0 0 Z " fill="#FDFDFD" transform="translate(333,118)"/>
<path d="M0 0 C26.07 0 52.14 0 79 0 C75.63975155 11.20082816 75.63975155 11.20082816 73.5 16.125 C71.51410558 20.72056338 69.76530806 25.29251183 68 30 C59.09 30 50.18 30 41 30 C43.25 19.875 43.25 19.875 44.7265625 15.96484375 C45.00580566 15.21581787 45.28504883 14.46679199 45.57275391 13.69506836 C45.91999512 12.7850708 46.26723633 11.87507324 46.625 10.9375 C47.73875 7.988125 48.8525 5.03875 50 2 C42.74 2 35.48 2 28 2 C26.824375 5.238125 25.64875 8.47625 24.4375 11.8125 C19.90638521 24.27840567 15.36666368 36.74147131 10.68261719 49.15087891 C7.32195135 58.05466133 4.13592812 67.01478751 1 76 C0.67 76 0.34 76 0 76 C0 50.92 0 25.84 0 0 Z " fill="#FEFCFC" transform="translate(0,118)"/>
<path d="M0 0 C0.9583374 0.00523682 1.9166748 0.01047363 2.90405273 0.01586914 C4.45576172 0.02070312 4.45576172 0.02070312 6.03881836 0.02563477 C7.12743164 0.03401367 8.21604492 0.04239258 9.33764648 0.05102539 C10.97636719 0.05779297 10.97636719 0.05779297 12.64819336 0.06469727 C15.35723144 0.07652713 18.06616248 0.09300996 20.77514648 0.11352539 C15.47621521 16.30470429 9.55710444 32.28571122 3.68701172 48.27612305 C2.44474424 51.66232374 1.20661737 55.05002201 -0.03149414 58.43774414 C-0.82095582 60.59018028 -1.61065999 62.74252751 -2.40063477 64.89477539 C-2.95525139 66.41476135 -2.95525139 66.41476135 -3.52107239 67.9654541 C-4.03247017 69.35455994 -4.03247017 69.35455994 -4.55419922 70.77172852 C-5.00337456 71.99720398 -5.00337456 71.99720398 -5.46162415 73.24743652 C-6.22485352 75.11352539 -6.22485352 75.11352539 -7.22485352 76.11352539 C-8.85958233 76.20052881 -10.49799407 76.22053602 -12.13500977 76.21118164 C-13.12436523 76.20795898 -14.1137207 76.20473633 -15.13305664 76.20141602 C-16.17397461 76.19303711 -17.21489258 76.1846582 -18.28735352 76.17602539 C-19.33213867 76.17151367 -20.37692383 76.16700195 -21.45336914 76.16235352 C-24.04392011 76.15052452 -26.6343591 76.13404228 -29.22485352 76.11352539 C-28.62267568 71.89317398 -27.64694015 68.09403071 -26.21313477 64.08227539 C-25.7914502 62.89649902 -25.36976562 61.71072266 -24.93530273 60.48901367 C-24.46959714 59.19708419 -24.0036062 57.90525753 -23.53735352 56.61352539 C-23.05554284 55.2683831 -22.57393942 53.92316655 -22.0925293 52.57788086 C-17.98002435 41.112761 -13.79522867 29.67352961 -9.59985352 18.23852539 C-9.28867584 17.38830811 -8.97749817 16.53809082 -8.65689087 15.66210938 C-7.77372427 13.25155658 -6.88667452 10.84247216 -5.99829102 8.43383789 C-5.59901146 7.3422789 -5.59901146 7.3422789 -5.19166565 6.22866821 C-2.9403349 0.15003355 -2.9403349 0.15003355 0 0 Z " fill="#C91A1A" transform="translate(118.224853515625,118.886474609375)"/>
<path d="M0 0 C7.26 0 14.52 0 22 0 C19.27923762 8.31775928 16.47768335 16.53463062 13.29296875 24.6875 C9.80696195 33.61841773 6.50169222 42.61822069 3.20703125 51.62109375 C2.95997437 52.29601364 2.71291748 52.97093353 2.45837402 53.66630554 C1.20192483 57.09967031 -0.05280104 60.53365278 -1.30517578 63.96850586 C-1.77243573 65.24724228 -2.23971984 66.52596988 -2.70703125 67.8046875 C-3.1244458 68.94921387 -3.54186035 70.09374023 -3.97192383 71.27294922 C-5 74 -5 74 -6 76 C-12.93 76 -19.86 76 -27 76 C-25.8749672 68.1247704 -25.8749672 68.1247704 -24.77587891 65.17724609 C-24.53079086 64.50960236 -24.28570282 63.84195862 -24.03318787 63.15408325 C-23.7670015 62.45097015 -23.50081512 61.74785706 -23.2265625 61.0234375 C-22.94672012 60.26755341 -22.66687775 59.51166931 -22.3785553 58.73287964 C-21.46752744 56.27765102 -20.54649547 53.82631693 -19.625 51.375 C-18.99273448 49.67825021 -18.36098439 47.98130827 -17.72973633 46.28417969 C-15.83026014 41.18551406 -13.91647811 36.09229465 -12 31 C-11.42591913 29.47234008 -10.85186219 27.94467116 -10.27783203 26.41699219 C-1.38886145 2.77772289 -1.38886145 2.77772289 0 0 Z " fill="#747173" transform="translate(418,119)"/>
<path d="M0 0 C7.26 0 14.52 0 22 0 C18.62433234 11.25222552 18.62433234 11.25222552 16.7578125 16.30859375 C16.33741699 17.45175049 15.91702148 18.59490723 15.48388672 19.77270508 C15.0354541 20.9820874 14.58702148 22.19146973 14.125 23.4375 C13.64970912 24.72478219 13.17461622 26.01213749 12.69970703 27.29956055 C11.68255691 30.05490329 10.66325566 32.80943865 9.64257812 35.56347656 C8.19988146 39.45736322 6.76359414 43.35358792 5.32852173 47.25028992 C4.13750615 50.48271719 2.94383118 53.71415775 1.74945068 56.94534302 C1.16680546 58.52257629 0.5849766 60.10011137 0.00396729 61.677948 C-0.80977986 63.88656104 -1.62706996 66.09383041 -2.4453125 68.30078125 C-2.81175873 69.29862137 -2.81175873 69.29862137 -3.18560791 70.31661987 C-4.88577714 74.88577714 -4.88577714 74.88577714 -6 76 C-7.56172745 76.08685603 -9.12729344 76.10702219 -10.69140625 76.09765625 C-11.63564453 76.09443359 -12.57988281 76.09121094 -13.55273438 76.08789062 C-14.54595703 76.07951172 -15.53917969 76.07113281 -16.5625 76.0625 C-17.55958984 76.05798828 -18.55667969 76.05347656 -19.58398438 76.04882812 C-22.05604849 76.03700007 -24.52799518 76.02051849 -27 76 C-26.34695868 70.20373262 -24.31487923 65.09443506 -22.24609375 59.6875 C-21.86695328 58.68275635 -21.48781281 57.6780127 -21.09718323 56.64282227 C-19.88246223 53.42656265 -18.66031828 50.21318871 -17.4375 47 C-15.8506872 42.81332259 -14.26688661 38.62550964 -12.68359375 34.4375 C-12.29472992 33.41043945 -11.90586609 32.38337891 -11.50521851 31.32519531 C-7.57319463 20.9180455 -3.78072028 10.46302428 0 0 Z " fill="#747173" transform="translate(311,119)"/>
<path d="M0 0 C3.0625 2.125 3.0625 2.125 5 5 C5.34177034 9.21757604 4.76536792 12.35285946 3.2421875 16.2734375 C2.67890747 17.74707764 2.67890747 17.74707764 2.10424805 19.25048828 C1.69859619 20.28157715 1.29294434 21.31266602 0.875 22.375 C0.04529758 24.52593548 -0.78412879 26.67697746 -1.61328125 28.828125 C-2.02143066 29.87806641 -2.42958008 30.92800781 -2.85009766 32.00976562 C-3.86067567 34.63769759 -4.83868126 37.27310486 -5.79296875 39.921875 C-6.05384277 40.64197754 -6.3147168 41.36208008 -6.58349609 42.10400391 C-7.26293212 43.98758441 -7.93826868 45.87264226 -8.61328125 47.7578125 C-11.14794894 53.68393697 -14.08933367 57.85116248 -19.640625 61.0859375 C-23.9434532 62.75292723 -28.48895405 62.87451618 -33 62 C-34.76171875 60.96875 -34.76171875 60.96875 -36 59 C-37.52987353 52.57999499 -36.61909016 48.68079905 -34 42.75 C-33.34269982 41.17600024 -32.68919345 39.60041198 -32.0390625 38.0234375 C-31.70036133 37.20713867 -31.36166016 36.39083984 -31.01269531 35.54980469 C-28.97409877 30.41694492 -27.27481169 25.15454025 -25.57421875 19.90136719 C-22.86105441 11.84459258 -19.71872416 5.19495878 -12 1 C-7.93205168 -0.35598277 -4.24892816 -0.65482606 0 0 Z " fill="#FDFCFC" transform="translate(490,126)"/>
</svg>
