<?xml version="1.0" encoding="UTF-8"?>
<svg version="1.1" xmlns="http://www.w3.org/2000/svg" width="240" height="240">
<path d="M0 0 C79.2 0 158.4 0 240 0 C240 79.2 240 158.4 240 240 C160.8 240 81.6 240 0 240 C0 160.8 0 81.6 0 0 Z " fill="#17CA8A" transform="translate(0,0)"/>
<path d="M0 0 C25.75590082 -0.98164229 25.75590082 -0.98164229 36.5625 4.8125 C37.49255859 5.26431641 38.42261719 5.71613281 39.38085938 6.18164062 C42.58974943 
  7.74389342 45.77496051 9.34405128 48.92138672 11.02880859 C53.47908821 13.28773145 57.21846693 13.44583502 62 12 C65.19824225 10.64183488 68.315702 9.15502006
  71.44433594 7.64355469 C86.16613892 0.57983873 97.41414504 -1.21359914 114 0 C114 10.56 114 21.12 114 32 C109.3903125 33.98 109.3903125 33.98 104.6875
  36 C103.72287842 36.41765625 102.75825684 36.8353125 101.7644043 37.265625 C100.61838745 37.75289062 100.61838745 37.75289062 99.44921875 38.25 C98.66893311 
  38.58515625 97.88864746 38.9203125 97.0847168 39.265625 C95 40 95 40 92 40 C91.67 34.72 91.34 29.44 91 24 C87.58333984 25.56814453 87.58333984 25.56814453 
  84.09765625 27.16796875 C81.86656724 28.16776625 79.63123924 29.15742799 77.39526367 30.14624023 C75.85148944 30.83532418 74.31228459 31.53474623 
  72.77807617 32.24487305 C58.36804384 38.90033426 58.36804384 38.90033426 53.28125 37.28125 C51.83615199 36.55565226 50.41060929 35.79055789 49 35 C46.8175516 
  34.08495636 44.62806386 33.18660674 42.43359375 32.30078125 C40.09979039 31.30884658 37.76809218 30.31195615 35.4375 29.3125 C31.333125 27.559375 27.22875 25.80625 
  23 24 C22.67 39.51 22.34 55.02 22 71 C3 79 3 79 1 79 C-0.49121778 76.01756445 -0.13001472 72.97384248 -0.11352539 69.70458984 C-0.11367142 68.95327286 -0.11381744
  68.20195587 -0.1139679 67.4278717 C-0.11326996 64.9388645 -0.10548314 62.44993167 -0.09765625 59.9609375 C-0.09579165 58.23743735 -0.09436794 56.51393666 -0.09336853
  54.79043579 C-0.08954669 50.24974103 -0.07971922 45.70907815 -0.06866455 41.168396 C-0.05844329 36.53674755 -0.05386937 31.90509397 -0.04882812 27.2734375 C-0.03809667 18.18227764 
  -0.02102422 9.09114147 0 0 Z " fill="#000" transform="translate(63,59)"/>
<path d="M0 0 C0.7632972 24.93280936 0.58312961 45.33197808 -17.515625 64.67578125 C-29.14718668 75.55750955 -44.26771448 80.57197676 -60.01171875 80.171875 C-74.92516671 79.31410806 -87.95167427 73.10258936 -98.65234375 62.66015625 C-103.25837783 57.44100615 -107.43169252 51.85885223 -109 45 C-106.25538312 43.79848104 -103.50547873 42.61361897 -100.75 41.4375 C-99.58404297 40.92413086 -99.58404297 40.92413086 -98.39453125 40.40039062 C-97.64042969 40.08134766 -96.88632813 39.76230469 -96.109375 39.43359375 C-95.07248535 38.98584595 -95.07248535 38.98584595 -94.01464844 38.52905273 C-91.60719275 37.89684764 -90.30772741 38.11016248 -88 39 C-86.61328125 40.85546875 -86.61328125 40.85546875 -85.3125 43.1875 C-82.04697676 48.36133909 -78.33797697 51.12357718 -73 54 C-72.40832031 54.3403125 -71.81664062 54.680625 -71.20703125 55.03125 C-63.89079698 58.51978554 -53.76700309 58.10729599 -46.0234375 56.30859375 C-43.52495255 55.38423167 -41.30755337 54.32808827 -39 53 C-38.28328125 52.5875 -37.5665625 52.175 -36.828125 51.75 C-29.51185909 46.9091624 -25.36033331 39.73024474 -23.39306641 31.26123047 C-22.65801932 27.03265523 -22.52439855 22.78275836 -22.375 18.5 C-22.33632812 17.5821875 -22.29765625 16.664375 -22.2578125 15.71875 C-22.16450436 13.47935472 -22.07871815 11.23994746 -22 9 C-4.52427184 0 -4.52427184 0 0 0 Z " fill="#000" transform="translate(177,106)"/>
</svg>
