<svg version="1.2" xmlns="http://www.w3.org/2000/svg" viewBox="0 0 1542 432" width="1542" height="1024">
	<title>2609094-6-pdf-svg</title>
	<defs>
		<clipPath clipPathUnits="userSpaceOnUse" id="cp1">
			<path d="m2842.58-2714.4v5860.32h-4141.68v-5860.32z"/>
		</clipPath>
	</defs>
	<style>
		.s0 { fill: #020203 } 
		.s1 { fill: #68bf4b } 
		.s2 { fill: #c21e4a } 
		.s3 { fill: #000000 } 
	</style>
	<g id="Clip-Path: Page 1" clip-path="url(#cp1)">
		<g id="Page 1">
			<path id="Path 4" class="s0" d="m93.3 0.7c-2.1 0-4.5 0.7-7.3 2.8-6.6-2.5-12.9-3.2-18.8 1.7-8.7-1-11.5 1.4-13.9 4.2-1.7 0-14.6-2.1-20.2 6.3-14.6-1.4-19.1 8.7-13.9 18.1-3.1 4.5-6.2 9 0.7 17.4-2.4 4.8-0.7 10 4.9 16.3-1.4 7 1.7 11.5 6.9 15.3-1 9.4 8.7 14.6 11.5 16.7 1.1 5.2 3.5 10.5 14.3 13.3 2.1 8 8.7 9.3 14.9 11.1-21.2 12.2-39.3 27.8-38.9 67.2l-3.2 5.2c-24.3 14.6-46.2 61.2-12.1 99.2 2.4 11.8 5.9 20.1 9.4 29.9 4.8 37.9 37.5 55.7 45.9 57.7 12.5 9.4 26 18.5 44.1 24.8 17.1 17 35.5 23.6 53.9 23.6q0.4 0 0.7 0c18.8 0 37.2-6.6 54.3-23.6 18.1-6.3 31.3-15.4 43.8-24.8 8.7-2 41-19.8 45.9-57.7 3.5-9.8 7.3-18.1 9.4-29.9 34.1-38 12.1-84.6-11.8-99.2l-3.2-5.2c0-39.4-18.1-55-39.3-67.2 6.6-1.8 13.2-3.1 15-11.1 10.8-2.8 13.2-8.1 14.2-13.3 2.8-2.1 12.6-7.3 11.5-16.7 5.6-3.8 8.4-8.3 7-15.3 5.5-6.3 7.3-11.5 4.8-16.3 7-8.4 3.9-12.9 0.7-17.4 5.3-9.4 0.7-19.5-13.9-18.1-5.5-8.4-18.4-6.3-20.1-6.3-2.1-2.8-5.3-5.2-14-4.2-5.9-4.9-12.1-4.2-18.7-1.7-8-5.9-13.2-1.1-19.2 0.7-9.3-3.2-11.4 1-16.3 2.8-10.4-2.1-13.6 2.7-18.4 7.6h-5.9c-15.7 9.1-23.3 27.5-26.1 36.9-2.8-9.4-10.5-27.8-26.1-36.9h-5.9c-4.9-4.9-8-9.7-18.4-7.6-4.6-1.8-7-6-16.4-2.8-3.8-1.1-7.6-3.9-11.8-3.5z"/>
			<path id="Path 5" fill-rule="evenodd" class="s1" d="m62.7 40.7c41.4 20.9 65.4 37.9 78.6 52.6-6.6 26.8-42.1 28.2-55 27.1 2.8-1 4.9-2.4 5.6-4.9-3.1-2.1-14.6 0-22.6-4.5 3.1-0.7 4.5-1.4 5.9-3.5-7.7-2.4-15.6-4.5-20.5-8.3 2.8 0 4.9 0.3 8.3-1.8-6.6-3.8-13.9-6.6-19.4-12.1 3.4 0 7.3 0 8.3-1.1q-9.4-5.9-16-12.9c5.2 0.7 7 0 8.4-0.7-4.9-4.8-10.8-8.7-13.6-14.6 3.8 1.4 6.9 1.8 9.4 0-1.4-3.5-8.4-5.5-12.2-13.9 3.8 0.4 7.7 0.7 8.7 0-1.7-7.3-4.9-11.1-8-15.3 8.3-0.4 20.9 0 20.2-0.7l-5.2-5.2c8-2.1 16.3 0.3 22.2 2.1 2.8-2.1 0-4.6-3.1-7.3q10.1 1.4 18.4 4.5c3.1-2.5-2.1-5.2-4.2-8 10.5 2.1 15 4.9 19.5 7.6 3.1-3.1 0-5.5-2.1-8.3 8 3.1 11.8 6.6 16.4 10.4 1.4-2.1 3.4-3.5 1-8 5.6 3.2 9.8 7 12.9 11.2 3.5-2.1 2.1-5.3 2.1-8 5.9 4.8 9.7 9.7 14.2 14.6 0.7-0.7 1.8-2.8 2.5-6.3 13.9 13.2 33.7 47 4.8 60.2-24.3-19.8-53.5-34.1-85.5-44.9zm133.9 44.9c-28.6-13.2-8.7-47 5.2-60.2 0.7 3.5 1.4 5.6 2.4 6.3 4.5-4.9 8.4-9.8 13.9-14.6 0 2.7-1.4 5.9 2.1 8 3.1-4.2 7.7-8 13.2-11.2-2.8 4.5-0.3 5.9 1.1 8 4.1-3.8 8.3-7.3 16.3-10.4-2.1 2.8-5.2 5.2-2.1 8.3 4.5-2.7 9.1-5.5 19.5-7.6-2.4 2.8-7.3 5.5-4.2 8q8.4-3.1 18.5-4.5c-3.2 2.7-6 5.2-3.5 7.3 6.2-1.8 14.2-4.2 22.2-2.1l-4.8 5.2c-0.7 0.7 11.8 0.3 19.8 0.7-2.8 4.2-5.9 8-7.7 15.3 0.7 0.7 4.9 0.4 8.7 0-3.8 8.4-10.7 10.4-12.5 13.9 2.4 1.8 5.9 1.4 9.4 0-2.8 5.9-8.7 9.8-13.2 14.6 1 0.7 3.1 1.4 8 0.7q-6.3 7-15.7 12.9c1.1 1.1 4.9 1.1 8.4 1.1-5.6 5.5-12.9 8.3-19.8 12.1 3.4 2.1 5.9 1.8 8.3 1.8-4.5 3.8-12.9 5.9-20.5 8.3 1.7 2.1 3.1 2.8 6.3 3.5-8.4 4.5-19.9 2.4-23 4.5 0.7 2.5 3.1 3.9 5.6 4.9-12.9 1.1-48-0.3-55-27.1 13.2-14.7 37.6-31.7 79-52.6-32.4 10.8-61.6 25.1-85.9 44.9z"/>
			<path id="Path 6" fill-rule="evenodd" class="s2" d="m222.6 312.9c0.4 25-21.9 45.5-49.3 45.5-27.5 0-49.8-19.8-50.1-44.9q0-0.3 0-0.6c0-24.8 21.9-45.3 49.4-45.3 27.4 0 50 19.8 50 44.9q0 0.4 0 0.4zm-77.5-129.2c20.5 13.6 24.3 43.5 8.3 67.6-16 24-45.5 32.3-66.4 19.1-20.5-13.2-24.3-43.5-8.3-67.2 16.3-24 45.9-32.7 66.4-19.5zm122.1 17.1c16 23.7 12.1 53.9-8.4 67.2-20.5 13.2-50.4 4.8-66.4-19.2-16-24-12.2-53.9 8.3-67.1 20.6-13.6 50.5-4.9 66.5 19.1zm-223.6 4.9c22.2-5.9 7.3 90.8-10.8 82.8-19.8-15.7-26.1-62 10.8-82.8zm267.4 81.7c-18.1 8.1-32.7-88.7-10.5-82.8 36.9 20.9 30.6 66.8 10.5 82.8zm-85.2-154.8c38.6-6.6 70.6 16 69.2 57.1-1.4 15.6-83.1-54.7-69.2-57.1zm-174.9 55.7c-1.4-40.7 30.6-63.4 68.8-57.1 14.3 2.4-67.8 73.1-68.8 57.1zm167.2-37.3c0 12.6-17.7 23-45.2 22.7-27.1-0.4-45.2-12.9-45.2-25.1 0-10.1 22.3-27.5 45.2-26.8 20.2-0.3 45.2 15 45.2 29.2zm-43.4 221.4c19.8-0.7 46.6 6.6 46.6 16 0.3 9.4-24.4 30.2-48 29.9-24.7 1-49.1-20.2-48.7-27.1-0.4-10.8 30.2-19.2 50.1-18.8zm-74.1-56.4c14.2 16.7 20.9 46.3 8.7 55.3-11.1 6.6-38.3 3.8-57.7-23.6-13.3-23-11.5-46.3-2.1-53.3 13.5-8.3 34.7 2.8 51.1 21.6zm192.6-27.9c9.1 8.7 14.3 41.5-1.4 60.9-21.2 28.9-50 30.3-60.8 22-11.1-10.5-2.4-42.8 12.9-60.6 17.3-19.5 36.5-32.3 49.3-22.3z"/>
			<path id="Path 7" fill-rule="evenodd" class="s3" d="m413.9 214v58.5h-29.2v-146.2h54.9q25.1 0 39 11.5 14.2 11.5 14.2 31.7 0 11.5-5.9 19.5-5.9 8-17.4 13.2 12.9 3.8 18.8 12.5 5.6 9.1 5.6 22.3v10.8q0 5.9 1.7 12.5 1.4 7 5.6 10.1v2.1h-30.3q-3.8-3.1-5.2-10.8-1-7.7-1-14.3v-10.4q0-10.8-6.3-16.7-5.9-6.3-16.7-6.3zm0-22.6h25.4q12.2 0 18.4-5.2 6-5.2 6-15.3 0-10.1-6-16-6.2-6-18-6h-25.8zm167.6 81.1q-1.4-3.8-2.7-8-1.1-4.2-1.4-8.3-4.6 8-11.9 13.2-7.6 5.2-17.7 5.2-17 0-26.4-8.7-9.1-9-9.1-24 0-16 12.2-24.7 12.5-8.7 35.8-8.7h16.4v-8.7q0-8-4.2-12.2-3.8-4.2-11.8-4.2-7.3 0-11.2 3.2-3.8 3.5-3.8 9.7h-28.1l-0.4-0.7q-0.7-13.6 12.2-23.6 12.5-10.1 33-10.1 19.5 0 31.7 10.1 12.1 9.7 12.1 27.8v44.9q0 7.6 1.1 14.3 1 6.9 3.5 13.5zm-26.5-19.5q7.7 0 13.6-3.8 5.9-3.8 8-9v-15.3h-16.4q-9 0-13.9 4.8-4.8 4.5-4.8 11.2 0 5.5 3.4 8.7 3.9 3.4 10.1 3.4zm131.8-10.4q0-4.9-4.5-8.4-4.9-3.4-17.4-6.2-19.1-3.8-28.9-11.5-10-7.7-10-20.9 0-14.2 11.8-24 11.8-9.7 31.6-9.7 20.9 0 33.1 9.7 12.1 9.8 11.8 24.7l-0.4 0.4h-28.1q0-6.3-4.2-10.5-4.2-4.2-12.2-4.2-7.3 0-11.1 3.5-4.2 3.5-4.2 8.7 0 4.9 4.2 8.4 4.5 3.1 17.4 5.5 20.2 4.2 29.9 11.9 9.7 7.6 9.7 21.2 0 14.6-12.5 24-12.5 9.4-33 9.4-21.9 0-34.4-11.1-12.6-10.8-11.9-25.1v-0.3h26.8q0.4 8.7 5.9 12.5 5.2 3.8 13.9 3.8 8.4 0 12.5-3.1 4.2-3.1 4.2-8.7zm145-21.6q0 24.4-11.1 39-11.1 14.6-30.9 14.6-8.7 0-15.3-3.1-6.7-3.1-11.2-9.4v52.2h-29.2v-150.3h26.4l1.4 12.8q4.9-7.3 11.9-11.1 6.6-3.8 15.6-3.8 20.2 0 31.3 15.6 11.1 16 11.1 41.4zm-29.2-2.1q0-15.3-5.2-25-4.9-9.4-15.6-9.4-6.7 0-11.2 2.8-4.8 2.8-7.3 7.6v47.7q2.5 4.5 7.3 7 4.5 2.4 11.5 2.4 10.4 0 15.7-8.3 4.8-8.4 4.8-22.7zm145 2.1q0 24.4-10.8 39-10.7 14.6-31.2 14.6-9.4 0-16.4-4.2-7.3-3.8-12.2-11.4l-2 13.5h-25.1v-156.6h29.2v59.5q4.5-6.6 11.2-10.1 6.6-3.4 15.3-3.4 20.5 0 31.2 15.6 10.8 15.7 10.8 41.4zm-29.2-2.1q0-15.6-4.5-25-4.5-9.4-16-9.4-6.6 0-11.5 2.8-4.5 2.8-7.3 8.3v46.3q2.8 4.9 7.3 7.3 4.9 2.8 11.8 2.8 11.2 0 15.7-8 4.5-8 4.5-23zm95.3 55.7q-23.3 0-37.6-14.9-13.9-15.4-13.9-38.3v-4.2q0-24 13.2-39.7 13.3-15.6 35.9-15.6 21.9 0 34 13.2 11.9 13.2 11.9 35.8v16h-64.7v0.7q0.7 10.5 6.9 17.4 6.7 7 17.4 7 9.8 0 16-2.1 6.6-1.7 14.3-5.9l8 18.1q-6.6 5.2-17.4 9-10.8 3.5-24 3.5zm-2.4-90.1q-8.4 0-12.9 6.2-4.9 6.3-5.9 16.4l0.3 0.4h35.9v-2.5q0-9.4-4.6-14.9-4.1-5.6-12.8-5.6zm119.9 4.5l-10.4-0.3q-6.6 0-10.8 2.7-4.1 2.8-6.6 7.7v73.4h-29.2v-108.5h27.5l1 16q3.9-8.4 10.1-13.3 5.9-4.8 13.9-4.8 2.1 0 4.2 0.3 1.7 0.4 3.5 1.1zm72 0l-10.8-0.4q-6.6 0-10.8 2.8-4.2 2.4-6.3 7.3v73.4h-29.2v-108.5h27.1l1.4 16q3.9-8.4 9.8-13.3 6.2-4.5 13.9-4.5 2.4 0 4.2 0.4 1.7 0.3 3.8 0.7zm56.7 37.9l1 5.9h0.7l20.9-68.9h31.3l-43.8 124.6q-4.6 11.8-12.6 19.8-8 7.7-23.6 7.7-3.8 0-7-0.4-3.1-0.7-7.6-1.7l3.5-21.6q1 0.4 2.7 0.7 1.4 0 2.5 0 7.3 0 11.1-3.5 4.2-3.5 6.3-9l3.1-8.4-38.3-108.2h31.3zm148.5-7.7v52.9h-29.2v-145.8h58.1q25.4 0 39.6 12.9 14.6 12.9 14.6 33.8 0 20.8-14.6 33.7-14.2 12.5-39.6 12.5zm0-22.6h28.9q12.1 0.4 18.7-6.6 6.3-6.6 6.3-17 0-10.5-6.3-17.4-6.2-6.7-18.7-6.7h-28.9zm132.8-33v108.6h-29.2v-108.6zm0-48v22.2h-29.2v-22.2z"/>
		</g>
	</g>
</svg>
