<svg version="1.1" xmlns="http://www.w3.org/2000/svg" width="2057" height="608">
<path d="M0 0 C93.72 0 187.44 0 284 0 C284 23.76 284 47.52 284 72 C214.37 72 144.74 72 73 72 C73 118.2 73 164.4 73 212 C142.63 212 212.26 212 284 212 C284 306.38 284 400.76 284 498 C190.28 498 96.56 498 0 498 C0 473.91 0 449.82 0 425 C70.29 425 140.58 425 213 425 C213 379.13 213 333.26 213 286 C142.71 286 72.42 286 0 286 C0 191.62 0 97.24 0 0 Z " fill="#000000" transform="translate(0,110)"/>
<path d="M0 0 C94.05 0 188.1 0 285 0 C285 94.05 285 188.1 285 285 C190.95 285 96.9 285 0 285 C0 190.95 0 96.9 0 0 Z M72 73 C72 119.53 72 166.06 72 214 C118.53 214 165.06 214 213 214 C213 167.47 213 120.94 213 73 C166.47 73 119.94 73 72 73 Z " fill="#000000" transform="translate(1064,322)"/>
<path d="M0 0 C94.05 0 188.1 0 285 0 C285 93.39 285 186.78 285 283 C190.95 283 96.9 283 0 283 C0 189.61 0 96.22 0 0 Z M71 71 C71 117.53 71 164.06 71 212 C118.52 212 166.04 212 215 212 C215 165.47 215 118.94 215 71 C167.48 71 119.96 71 71 71 Z " fill="#000000" transform="translate(354,324)"/>
<path d="M0 0 C94.05 0 188.1 0 285 0 C285 23.43 285 46.86 285 71 C215.04 71 145.08 71 73 71 C72.67 93.11 72.34 115.22 72 138 C71.67 138.66 71.34 139.32 71 140 C141.62 140 212.24 140 285 140 C285 163.76 285 187.52 285 212 C215.04 212 145.08 212 73 212 C73 235.76 73 259.52 73 284 C49.24 284 25.48 284 1 284 C0.82230871 267.9792261 0.65251565 251.95851571 0.5 235.9375 C0.48812275 234.69081669 0.4762455 233.44413338 0.46400833 232.15967178 C0.11875069 195.45542862 -0.04747812 158.75273443 -0.06640625 122.046875 C-0.06688611 121.17174916 -0.06736597 120.29662333 -0.06786036 119.39497852 C-0.08841667 79.59666533 -0.03264829 39.79826164 0 0 Z " fill="#000000" transform="translate(1772,324)"/>
<path d="M0 0 C94.05 0 188.1 0 285 0 C285 23.43 285 46.86 285 71 C215.04 71 145.08 71 73 71 C73 76.61 73 82.22 73 88 C72.67 105.16 72.34 122.32 72 140 C142.29 140 212.58 140 285 140 C285 163.76 285 187.52 285 212 C215.04 212 145.08 212 73 212 C73 235.76 73 259.52 73 284 C49.24 284 25.48 284 1 284 C0.82431235 265.91672141 0.65466335 247.83345897 0.5 229.75 C0.49107719 228.70950752 0.49107719 228.70950752 0.48197412 227.647995 C0.15440459 189.35394493 -0.04548199 151.06113204 -0.06640625 112.765625 C-0.06688611 111.93916568 -0.06736597 111.11270636 -0.06786036 110.26120281 C-0.08797465 73.50747794 -0.03281578 36.75367498 0 0 Z " fill="#000000" transform="translate(1418,324)"/>
<path d="M0 0 C94.05 0 188.1 0 285 0 C285 93.39 285 186.78 285 283 C261.24 283 237.48 283 213 283 C213 213.04 213 143.08 213 71 C166.47 71 119.94 71 72 71 C72 140.96 72 210.92 72 283 C48.24 283 24.48 283 0 283 C0 189.61 0 96.22 0 0 Z " fill="#000000" transform="translate(709,324)"/>
<path d="M0 0 C16.04941432 6.16443414 29.07524758 38.72793036 35.76123047 53.21044922 C59.58036771 106.84810435 61.35676231 169.78600026 40.96386719 224.79492188 C33.7276501 243.27347439 24.558588 260.86484789 13 277 C12.5555957 277.62793457 12.11119141 278.25586914 11.65332031 278.90283203 C10.32824972 280.76144036 8.98214805 282.6022198 7.625 284.4375 C7.22023438 285.00001465 6.81546875 285.5625293 6.3984375 286.14208984 C5.2265625 287.68359375 5.2265625 287.68359375 3 290 C-1.2823617 290 -1.59119239 289.91648008 -4.53125 287.26171875 C-5.17707031 286.68873047 -5.82289063 286.11574219 -6.48828125 285.52539062 C-7.48408203 284.61563477 -7.48408203 284.61563477 -8.5 283.6875 C-9.8219759 282.50285558 -11.14486575 281.31923013 -12.46875 280.13671875 C-13.34176758 279.34334106 -13.34176758 279.34334106 -14.23242188 278.53393555 C-16.08939926 276.92241774 -18.01736939 275.45296791 -20 274 C-18.69567125 270.28168969 -17.15000124 267.76580183 -14.5625 264.8125 C3.16473142 243.16018286 14.40165484 215.95584703 21 189 C21.21462891 188.12359863 21.42925781 187.24719727 21.65039062 186.34423828 C27.47949504 161.20969521 27.86317149 131.19733697 22 106 C21.82839355 105.22962402 21.65678711 104.45924805 21.47998047 103.66552734 C14.24033622 71.8149745 -0.13581087 44.66644369 -20 19 C-18.42751016 14.69847941 -15.12657391 12.30164289 -11.6875 9.5 C-11.11837891 9.02691406 -10.54925781 8.55382813 -9.96289062 8.06640625 C-6.67273441 5.33908961 -3.34443601 2.66048944 0 0 Z " fill="#000000" transform="translate(461,0)"/>
<path d="M0 0 C25.83855454 24.78671958 37.52265035 64.34087772 38.28540039 99.24633789 C38.62951738 136.5938818 27.04515482 171.6210817 4 201 C3.34 201.99 2.68 202.98 2 204 C-1.98391863 203.42289029 -4.21903076 201.42967407 -7.25 198.875 C-8.21035156 198.06933594 -9.17070312 197.26367188 -10.16015625 196.43359375 C-13.79793221 193.3162149 -17.42324415 190.18730966 -21 187 C-19.03250973 183.61083935 -16.89071923 180.39863836 -14.63745117 177.19384766 C5.39719194 148.32939374 13.07645017 113.71307059 7.03515625 79.12109375 C3.33658284 59.90099976 -4.08735406 43.17818838 -15 27 C-15.58394531 26.11828125 -16.16789062 25.2365625 -16.76953125 24.328125 C-18.17176892 22.21327474 -19.58168882 20.10408802 -21 18 C-14.2325439 11.66767644 -7.46187668 5.52103502 0 0 Z " fill="#000000" transform="translate(410,43)"/>
<path d="M0 0 C1.77020943 2.17543809 3.29459917 4.28115314 4.8125 6.625 C5.25537354 7.30143555 5.69824707 7.97787109 6.15454102 8.67480469 C19.11212493 29.00395076 23.41234586 53.64325105 18.87280273 77.33032227 C15.8032595 91.0943408 10.22347231 108.87818173 -2 117 C-2.67804688 116.443125 -3.35609375 115.88625 -4.0546875 115.3125 C-10.33462911 110.1632958 -16.64634878 105.05811279 -23 100 C-21.85996871 97.58477907 -20.59989996 95.35135296 -19.1953125 93.07421875 C-9.4703538 77.16565424 -6.23731549 60.44947768 -10.5625 42.25 C-12.99796183 34.10859902 -16.50749809 24.76234212 -23 19 C-21.73421912 15.20265737 -20.06527709 14.21091952 -16.9375 11.75 C-12.6931182 8.37767584 -8.61675193 4.91522797 -4.65625 1.21484375 C-3 0 -3 0 0 0 Z " fill="#000000" transform="translate(360,87)"/>
</svg>
