<svg version="1.2" xmlns="http://www.w3.org/2000/svg" viewBox="0 0 1512 1512" width="1512" height="1512">
	<title>TUYA-05fa473e-svg</title>
	<style>
		.s0 { fill: #ff4800 } 
		.s1 { fill: #ffffff } 
	</style>
	<g id="#ff4800ff">
		<path id="Layer" fill-rule="evenodd" class="s0" d="m0 0h1512v1512h-1512zm989.5 251.7c-13 2.2-23 14.3-23.7 27.3-0.4 5.7 1.2 11.4 3.9 16.4 5.1 8.9 15.2 14.6 25.4 14.8 13 0.4 26.1 1 38.9 3.7 22.3 4.1 43.8 12.5 63.6 23.6 16 9 30.7 20.3 43.6 33.4 29.9 29.2 49.8 68.2 57.2 109.2 2.4 12.9 2.9 26 3.8 39 0.6 10.5 7.6 20.3 17.3 24.5 5.8 2.4 12.3 3.4 18.4 1.8 9.3-1.9 17.2-8.9 20.8-17.7 2.9-6.5 1.9-13.8 1.7-20.7-1.7-55.2-21.6-109.4-55.4-153-22.8-29.1-51.6-53.6-84.3-71-33.8-18.5-71.8-29.1-110.2-31.2-7-0.4-14.1-1.5-21-0.1zm-418 44.6c-28.8 12.3-51.2 40.2-54.2 71.7-1.1 40.8-0.1 81.7-0.6 122.6-18.2 0.1-37-1.5-54.6 4.5-25.5 8.5-46.4 29.4-55.3 54.7-6.8 19.2-6.7 40.8 0.3 60 5.7 15.9 16.5 29.8 29.9 40.1 9.5 7.8 21 12.8 32.9 15.6 15.4 3.3 31.3 2.3 46.9 2.5q0 81 0 162c0.2 22.6-0.6 45.4 1.1 68 4.1 53 19.7 105.3 47.2 150.9 28 48.8 68.2 90.2 115.3 120.6 55.8 36.3 122.1 56 188.6 55.8 17 0.7 34 0 51 0.2q18.5 0 37 0c18.3 0.2 37.2-4.6 52.2-15.5 7.8-5.6 15.1-12 20.8-19.8 13.3-16.8 19.7-38.9 17.9-60.2-1.2-17.2-7.6-34-18.4-47.4-12.8-15.9-30.6-28.2-50.7-32.4-9.2-2.1-18.5-2-27.8-2.2-27.4-0.1-54.7 0.2-82-0.2-43.4-0.1-86.2-17.6-118-46.9-14-13.3-26.5-28.4-35.5-45.5-11.4-20.8-18.2-43.9-20.6-67.4-1.2-12-0.8-24-0.9-36-0.1-61.3 0-122.7 0-184q104 0 208 0c14-0.3 28.3-3.1 40.4-10.4 17.4-11.2 29.3-29.6 34.2-49.5 3.8-15.2 5-31.4 1.8-46.9-5.4-26.8-24.4-49.9-48.7-62-11.6-5.9-24.7-8.6-37.7-8.4-66-0.4-131.9-0.3-197.9-0.2-0.5-37.2 0.4-74.4-0.4-111.6 0.2-7.1-0.8-14.1-2.2-21.1-7.8-33.4-36.5-60.9-70.4-67.1-16.6-2.9-34.1-1.3-49.6 5.5zm420 73.3c-13.3 1.4-24.4 13.1-25.6 26.4-0.9 7.6 1.8 15.2 6.4 21.2 5.9 7.3 15.4 11.2 24.7 11.1 17.2-0.1 34.2 5.7 48.1 15.7 20.7 14 35.1 37.2 38 62.1 0.8 7.7 0.2 15.9 3.6 23.1 5.1 11.7 18.7 18.6 31.2 16.7 9.8-1.5 18.6-8.4 22.4-17.6 3.4-6.9 2.3-14.8 1.9-22.2-1.7-24.5-9.7-48.6-23.1-69.2-23.5-36.6-63.9-61.8-107.2-66.5-6.8-0.7-13.6-1.8-20.4-0.8z"/>
	</g>
	<g id="#ffffffff">
		<path id="Layer" class="s1" d="m989.5 251.7c6.9-1.4 14-0.3 21 0.1 38.4 2.1 76.4 12.7 110.2 31.2 32.7 17.4 61.5 41.9 84.3 71 33.8 43.6 53.7 97.8 55.4 153 0.2 6.9 1.2 14.2-1.6 20.7-3.7 8.8-11.6 15.8-20.9 17.7-6.1 1.6-12.6 0.6-18.4-1.8-9.7-4.2-16.7-14-17.3-24.5-0.9-13-1.4-26.1-3.8-39-7.4-41-27.3-80-57.2-109.2-12.9-13.1-27.6-24.4-43.6-33.4-19.8-11.1-41.3-19.5-63.6-23.6-12.8-2.7-25.9-3.3-38.9-3.7-10.2-0.2-20.3-5.9-25.4-14.8-2.7-5-4.3-10.7-3.9-16.4 0.7-13 10.7-25.1 23.7-27.3z"/>
		<path id="Layer" class="s1" d="m571.5 296.3c15.5-6.8 33-8.4 49.6-5.5 33.9 6.2 62.6 33.7 70.4 67.1 1.4 7 2.4 14 2.2 21.1 0.8 37.2-0.1 74.4 0.4 111.6 66-0.1 131.9-0.2 197.9 0.1 13-0.1 26.1 2.6 37.7 8.5 24.3 12.1 43.3 35.2 48.7 62 3.2 15.5 2 31.7-1.8 46.9-4.9 19.9-16.8 38.3-34.2 49.5-12.1 7.3-26.4 10.1-40.4 10.4q-104 0-208 0c0 61.3-0.1 122.7 0 184 0.1 12-0.3 24 0.9 36 2.3 23.5 9.2 46.6 20.6 67.4 9 17.1 21.5 32.2 35.5 45.5 31.8 29.3 74.6 46.8 118 46.9 27.3 0.4 54.6 0.1 82 0.2 9.3 0.2 18.6 0.1 27.8 2.2 20.1 4.2 37.9 16.5 50.7 32.4 10.8 13.4 17.2 30.2 18.4 47.4 1.8 21.3-4.6 43.4-17.9 60.2-5.7 7.8-13 14.2-20.8 19.8-15 10.9-33.9 15.7-52.2 15.5q-18.5 0-37 0c-17-0.2-34 0.5-51-0.2-66.5 0.2-132.8-19.5-188.6-55.8-47.1-30.4-87.3-71.8-115.3-120.6-27.5-45.6-43.1-97.9-47.2-150.9-1.7-22.6-0.9-45.4-1.1-68q0-81 0-162c-15.6-0.2-31.5 0.7-46.9-2.5-11.9-2.8-23.4-7.8-32.9-15.6-13.4-10.3-24.2-24.2-30-40.1-6.9-19.2-7-40.8-0.2-60 8.9-25.3 29.8-46.2 55.3-54.7 17.6-6 36.4-4.4 54.6-4.5 0.5-40.9-0.5-81.8 0.6-122.6 3-31.5 25.4-59.4 54.2-71.7z"/>
		<path id="Layer" class="s1" d="m991.5 369.6c6.8-1 13.6 0.1 20.4 0.8 43.3 4.7 83.7 29.9 107.2 66.5 13.4 20.6 21.4 44.6 23.1 69.1 0.4 7.5 1.5 15.4-1.9 22.3-3.8 9.2-12.6 16.1-22.4 17.6-12.5 1.9-26.1-5-31.2-16.7-3.4-7.2-2.8-15.4-3.6-23.1-2.9-24.9-17.3-48.1-38-62.1-13.9-10-30.9-15.8-48.1-15.7-9.3 0.1-18.8-3.8-24.7-11.1-4.6-6-7.3-13.7-6.4-21.2 1.2-13.3 12.2-25 25.6-26.4z"/>
	</g>
</svg>
