<?xml version="1.0" encoding="UTF-8"?>
<svg version="1.1" xmlns="http://www.w3.org/2000/svg" width="250" height="250">
<path d="M0 0 C2.87939083 0.00462755 5.75835889 -0.00228882 8.63769531 -0.02050781 C43.45528047 -0.23876679 78.85923645 1.44905201 105.07958984 27.31567383 C129.34898766 51.96953735 129.44106857 88.4161744 129.34033203 120.80761719 C129.32894867 124.50649908 129.33570734 128.20509298 129.34720135 131.903965 C129.44768046 169.82628682 129.44768046 169.82628682 124.76708984 186.19067383 C124.54835205 186.97966064 124.32961426 187.76864746 124.10424805 188.58154297 C120.81913898 200.09532609 116.12472287 209.60324764 109.07958984 219.31567383 C108.44923828 220.20899414 108.44923828 220.20899414 107.80615234 221.12036133 C94.24737681 238.91024412 70.31687228 246.10404302 49.13606262 249.05189514 C40.22989291 250.19426754 31.45333578 250.48988721 22.47412109 250.51879883 C21.78385015 250.52162621 21.09357922 250.52445358 20.38239098 250.52736664 C16.71838388 250.54227602 13.05441522 250.55155353 9.39038086 250.5559082 C6.41466818 250.56026349 3.43925024 250.57405148 0.46362305 250.59692383 C-33.30034452 250.85111812 -68.39908604 250.15690336 -94.54541016 225.87817383 C-95.32916016 225.03254883 -96.11291016 224.18692383 -96.92041016 223.31567383 C-97.71705078 222.49196289 -97.71705078 222.49196289 -98.52978516 221.65161133 C-117.95632537 200.76378269 -121.07363547 170.64499477 -121.08837891 143.40161133 C-121.09160445 141.97832203 -121.09496942 140.55503304 -121.09846497 139.13174438 C-121.1044137 136.16163365 -121.10630938 133.19155181 -121.10571289 130.22143555 C-121.10563179 127.21160858 -121.11255395 124.20193434 -121.1262207 121.19213867 C-121.27068866 88.87941788 -121.27068866 88.87941788 -118.92041016 75.31567383 C-118.70130981 74.01654053 -118.70130981 74.01654053 -118.4777832 72.69116211 C-114.44579114 51.14468782 -105.14520728 31.97068156 -87.40478516 18.38989258 C-61.18942584 0.69060059 -30.5629384 -0.05323387 0 0 Z " fill="#FF6900" transform="translate(120.92041015625,-0.315673828125)"/>
<path d="M0 0 C11.529375 -0.061875 23.05875 -0.12375 34.9375 -0.1875 C38.54163818 -0.21481201 42.14577637 -0.24212402 45.85913086 -0.27026367 C50.35266113 -0.28381348 50.35266113 -0.28381348 52.47413635 -0.28633118 C53.9167511 -0.29085707 55.3593565 -0.30123349 56.80189514 -0.31672668 C88.13935187 -0.63567373 88.13935187 -0.63567373 98.6953125 8.4609375 C106.16104661 16.1430697 107.13350141 27.51377534 107.11352539 37.76147461 C107.11341209 39.71270485 107.11341209 39.71270485 107.11329651 41.70335388 C107.10819141 43.10301757 107.10297544 44.50268086 107.09765625 45.90234375 C107.09578866 47.34965465 107.09436637 48.79696619 107.09336853 50.24427795 C107.08957018 54.0335976 107.0797631 57.82287826 107.06866455 61.61218262 C107.05839247 65.48689242 107.05385854 69.3616086 107.04882812 73.23632812 C107.03813815 80.82423849 107.02056339 88.41210879 107 96 C99.41 96 91.82 96 84 96 C83.98541748 94.22955322 83.97083496 92.45910645 83.95581055 90.63500977 C83.90395952 84.75558821 83.83862081 78.87639766 83.76428509 72.99722385 C83.7197438 69.4360796 83.68045322 65.87504546 83.65356445 62.3137207 C83.62234345 58.21016331 83.56756222 54.10720301 83.51171875 50.00390625 C83.50532883 48.73793106 83.4989389 47.47195587 83.49235535 46.1676178 C83.30274694 34.49352549 83.30274694 34.49352549 77.8125 24.5625 C71.11641291 20.84245162 64.27895893 20.71898242 56.8125 20.8046875 C55.86938965 20.8075174 54.9262793 20.81034729 53.95458984 20.81326294 C50.96959244 20.82437558 47.98490531 20.84946328 45 20.875 C42.96484811 20.88504134 40.92969148 20.89416516 38.89453125 20.90234375 C33.92956963 20.92428565 28.96483725 20.95875327 24 21 C23.9845388 22.38728554 23.9845388 22.38728554 23.96876526 23.80259705 C23.87096818 32.49959224 23.76847962 41.19651656 23.66066074 49.89339352 C23.60539123 54.36501994 23.55196493 58.83665285 23.50268555 63.30834961 C23.45510123 67.62017766 23.40276084 71.93192368 23.34705925 76.24365425 C23.32660872 77.89233939 23.30790019 79.54104706 23.29092598 81.18977165 C23.26694141 83.4910996 23.23687923 85.7922711 23.20532227 88.09350586 C23.18977798 89.4058873 23.1742337 90.71826874 23.15821838 92.07041931 C23 95 23 95 22 96 C14.74 96 7.48 96 0 96 C0 64.32 0 32.64 0 0 Z " fill="#FFFDFC" transform="translate(50,77)"/>
<path d="M0 0 C7.26 0 14.52 0 22 0 C23.88885195 1.88885195 23.12010635 4.64051759 23.12442017 7.15324402 C23.12082489 8.0379689 23.11722961 8.92269379 23.11352539 9.83422852 C23.11367142 10.76096375 23.11381744 11.68769897 23.1139679 12.64251709 C23.11326838 15.72133687 23.10547421 18.80009697 23.09765625 21.87890625 C23.09579221 24.00740018 23.09436824 26.13589453 23.09336853 28.26438904 C23.08954228 33.8786232 23.07971108 39.49283168 23.06866455 45.10705566 C23.05845273 50.83113253 23.0538714 56.55521353 23.04882812 62.27929688 C23.0380889 73.51954438 23.02049124 84.75976604 23 96 C15.41 96 7.82 96 0 96 C0 64.32 0 32.64 0 0 Z " fill="#FFFEFD" transform="translate(176,77)"/>
<path d="M0 0 C1.02996094 -0.00128906 2.05992188 -0.00257812 3.12109375 -0.00390625 C4.74724609 0.00189453 4.74724609 0.00189453 6.40625 0.0078125 C7.49035156 0.00394531 8.57445313 0.00007813 9.69140625 -0.00390625 C10.72136719 -0.00261719 11.75132813 -0.00132813 12.8125 0 C14.24045898 0.00169189 14.24045898 0.00169189 15.69726562 0.00341797 C17.90625 0.1328125 17.90625 0.1328125 18.90625 1.1328125 C19.00518778 2.90727259 19.03424092 4.68567501 19.03564453 6.46289062 C19.03879669 7.60077026 19.04194885 8.7386499 19.04519653 9.91101074 C19.0431723 11.14951782 19.04114807 12.3880249 19.0390625 13.6640625 C19.04049759 15.55614441 19.04049759 15.55614441 19.04196167 17.4864502 C19.04264375 20.15978388 19.04128529 22.83302687 19.03662109 25.50634766 C19.03092381 28.93987941 19.03420301 32.373333 19.04019356 35.80686188 C19.04466762 39.07176493 19.04153883 42.33665843 19.0390625 45.6015625 C19.04108673 46.84006958 19.04311096 48.07857666 19.04519653 49.35461426 C19.04204437 50.4924939 19.03889221 51.63037354 19.03564453 52.80273438 C19.03484894 53.81009644 19.03405334 54.8174585 19.03323364 55.85534668 C18.90625 58.1328125 18.90625 58.1328125 17.90625 59.1328125 C16.21066274 59.23213403 14.51099253 59.26361257 12.8125 59.265625 C11.78253906 59.26691406 10.75257812 59.26820313 9.69140625 59.26953125 C8.06525391 59.26373047 8.06525391 59.26373047 6.40625 59.2578125 C5.32214844 59.26167969 4.23804687 59.26554687 3.12109375 59.26953125 C2.09113281 59.26824219 1.06117187 59.26695312 0 59.265625 C-0.95197266 59.26449707 -1.90394531 59.26336914 -2.88476562 59.26220703 C-5.09375 59.1328125 -5.09375 59.1328125 -6.09375 58.1328125 C-6.19268778 56.35835241 -6.22174092 54.57994999 -6.22314453 52.80273438 C-6.22629669 51.66485474 -6.22944885 50.5269751 -6.23269653 49.35461426 C-6.2306723 48.11610718 -6.22864807 46.8776001 -6.2265625 45.6015625 C-6.22751923 44.34017456 -6.22847595 43.07878662 -6.22946167 41.7791748 C-6.23014375 39.10584112 -6.22878529 36.43259813 -6.22412109 33.75927734 C-6.21842381 30.32574559 -6.22170301 26.892292 -6.22769356 23.45876312 C-6.23216762 20.19386007 -6.22903883 16.92896657 -6.2265625 13.6640625 C-6.22858673 12.42555542 -6.23061096 11.18704834 -6.23269653 9.91101074 C-6.22954437 8.7731311 -6.22639221 7.63525146 -6.22314453 6.46289062 C-6.22234894 5.45552856 -6.22155334 4.4481665 -6.22073364 3.41027832 C-5.98317362 -0.85038719 -3.73176367 0.00442152 0 0 Z " fill="#FFFAF8" transform="translate(97.09375,113.8671875)"/>
</svg>
