<?xml version="1.0" encoding="UTF-8"?>
<svg version="1.1" xmlns="http://www.w3.org/2000/svg" width="250" height="60">
<path d="M0 0 C1.16015625 0.11794922 1.16015625 0.11794922 2.34375 0.23828125 C4.5 0.6875 4.5 0.6875 7.5 2.6875 C7.5 2.0275 7.5 1.3675 7.5 0.6875 C10.8 0.6875 14.1 0.6875 17.5 0.6875 C17.57474224 4.95585703 17.62887823 9.22385674 17.66479492 13.49267578 C17.67978417 14.94163661 17.70018271 16.39055283 17.72631836 17.83935547 C17.88858237 27.07249562 17.92360158 34.60731701 12.5625 42.5625 C8.64645919 46.59720871 5.3088752 47.0218331 -0.25 47.125 C-5.92414977 47.05392506 -9.59581277 46.31112834 -14.2421875 43.07421875 C-15.5 41.6875 -15.5 41.6875 -15.5 38.6875 C-13.5 36 -13.5 36 -11.5 33.6875 C-10.4790625 34.120625 -10.4790625 34.120625 -9.4375 34.5625 C-3.12900399 37.36059421 -3.12900399 37.36059421 3.375 36.5625 C5.71312978 34.49944431 5.92535376 33.63409028 6.5 30.6875 C5.93152344 30.85507812 5.36304688 31.02265625 4.77734375 31.1953125 C-0.58560813 32.60991416 -4.27721782 33.09801485 -9.5 30.6875 C-12.81624486 27.59462915 -15.35126956 24.45275968 -15.73828125 19.859375 C-15.98632897 8.42306947 -15.98632897 8.42306947 -11.5 3.6875 C-7.79568122 0.43218955 -4.88538239 -0.54553437 0 0 Z M-4.375 9.6875 C-6.18527863 12.90577312 -6.14144893 16.14527649 -5.5 19.6875 C-3.53544996 22.5979445 -2.41469953 23.48169261 1 24.25 C3.6961912 23.86157589 3.6961912 23.86157589 5.8125 21.5625 C7.79284835 18.18857319 8.15454929 16.53297708 7.5 12.6875 C6 10.1875 6 10.1875 3.5 8.6875 C0.35610056 8.23837151 -1.55480125 8.183394 -4.375 9.6875 Z " fill="#000000" transform="translate(129.5,13.3125)"/>
<path d="M0 0 C0 3 0 3 -1.94140625 5.19921875 C-3.23884766 6.43091797 -3.23884766 6.43091797 -4.5625 7.6875 C-8.31199707 11.32114182 -11.82584809 15.00517136 -15.19140625 18.9921875 C-18.03957098 22.15408096 -21.21298651 24.97944674 -24.375 27.82421875 C-26.31802226 29.9205592 -26.31802226 29.9205592 -25.75 32.76953125 C-25.5025 33.50558594 -25.255 34.24164063 -25 35 C-20.75054147 36.03987597 -16.64072144 36.12989631 -12.29296875 36.09765625 C-11.56757401 36.0962413 -10.84217926 36.09482635 -10.09480286 36.09336853 C-7.7923255 36.08779931 -5.48994765 36.07525261 -3.1875 36.0625 C-1.62044412 36.05748102 -0.0533867 36.05291881 1.51367188 36.04882812 C5.34248589 36.03783998 9.17122611 36.02059673 13 36 C10.35134776 41.67879164 5.72501104 43.72832818 0.1875 46.3125 C-9.3312496 48.36556364 -17.49129476 47.01084687 -25.78125 41.90234375 C-30.7098675 38.19330762 -34.06994742 32.79015774 -36 27 C-37.14606772 9.05746431 -37.14606772 9.05746431 -32 2 C-22.02409743 -1.32530086 -10.39837384 -0.1029542 0 0 Z " fill="#EC0343" transform="translate(36,9)"/>
<path d="M0 0 C1.12595581 0.01027222 1.12595581 0.01027222 2.2746582 0.02075195 C7.85679779 0.18312599 12.03423275 1.00733756 16.5625 4.4375 C17.614375 5.13875 18.66625 5.84 19.75 6.5625 C24.57698798 10.78281736 28.15755108 18.44775731 28.80078125 24.78515625 C28.98934958 31.68278737 27.98527877 37.36643985 24.5625 43.4375 C18.01663472 46.71043264 8.64411675 45.55859528 1.5 45.5 C0.44361328 45.49548828 -0.61277344 45.49097656 -1.70117188 45.48632812 C-4.28000908 45.47465918 -6.85872294 45.45828885 -9.4375 45.4375 C-7.81593976 41.33641114 -4.8607297 38.60601833 -1.7734375 35.578125 C-1.22136627 35.02888367 -0.66929504 34.47964233 -0.10049438 33.91375732 C1.65751815 32.16690707 3.4223689 30.42715399 5.1875 28.6875 C6.3832708 27.50176409 7.57858865 26.3155712 8.7734375 25.12890625 C11.69790253 22.22644915 14.62851874 19.3303359 17.5625 16.4375 C16.6740504 13.36831046 16.18604508 11.81102391 13.3918457 10.13720703 C9.93725393 9.28287447 6.85306725 9.21288628 3.29296875 9.2421875 C2.27146477 9.24643234 2.27146477 9.24643234 1.22932434 9.25076294 C-0.93063455 9.26189475 -3.09016794 9.28698543 -5.25 9.3125 C-6.72069711 9.32253889 -8.19140076 9.33166315 -9.66210938 9.33984375 C-13.25404286 9.36181087 -16.84572985 9.3962918 -20.4375 9.4375 C-14.97527062 1.9890054 -9.07643623 -0.12689347 0 0 Z " fill="#EC0343" transform="translate(27.4375,-0.4375)"/>
<path d="M0 0 C3.3 0 6.6 0 10 0 C10 3.63 10 7.26 10 11 C11.65 10.34 13.3 9.68 15 9 C19.67903283 8.68263951 23.7217404 9.36174973 27.4375 12.3125 C32.23177745 17.34064464 32.44054332 21.28322592 32.31640625 28.0859375 C31.88922865 32.02019046 30.67361731 34.10960291 28 37 C27.29875 37.78375 26.5975 38.5675 25.875 39.375 C21.63127556 41.77362686 17.76025397 41.29045617 13 41 C12.01 41 11.02 41 10 41 C6.7 41 3.4 41 0 41 C0 27.47 0 13.94 0 0 Z M11.33984375 19.2421875 C9.21372476 22.03155643 9.52696169 24.50654263 9.6484375 27.90234375 C9.84894036 30.16367994 9.84894036 30.16367994 11.6875 32.0625 C14.48619639 33.19710664 16.01675911 33.59664818 19 33 C21.54366876 31.02938694 21.54366876 31.02938694 23 28 C22.93931504 24.48027215 22.66225706 22.08052467 20.8125 19.0625 C17.6544685 17.21124015 14.32688142 17.00718049 11.33984375 19.2421875 Z " fill="#000000" transform="translate(150,4)"/>
<path d="M0 0 C2.89698761 2.02977657 4.30348752 4.07996958 5.80078125 7.26171875 C5.80078125 9.57171875 5.80078125 11.88171875 5.80078125 14.26171875 C-3.10921875 17.23171875 -3.10921875 17.23171875 -12.19921875 20.26171875 C-6.43034383 20.81641895 -6.43034383 20.81641895 -3.19921875 18.26171875 C-0.68571711 18.49735953 0.56427399 19.07589162 2.55078125 20.63671875 C3.80078125 22.26171875 3.80078125 22.26171875 3.80078125 25.26171875 C-2.51389375 29.96101178 -8.47875673 30.21682745 -16.19921875 29.26171875 C-21.19594063 27.15783585 -23.37259798 24.16417781 -25.5078125 19.33984375 C-27.06024891 14.67376369 -26.49312315 11.17436926 -25.01171875 6.57421875 C-22.64512591 2.24906631 -20.13106903 0.27848206 -15.82421875 -1.98828125 C-9.87364389 -3.6884455 -5.3112086 -2.93921253 0 0 Z M-14.57421875 8.13671875 C-16.40170212 10.08065189 -16.40170212 10.08065189 -16.19921875 12.26171875 C-12.23921875 11.27171875 -8.27921875 10.28171875 -4.19921875 9.26171875 C-4.19921875 8.60171875 -4.19921875 7.94171875 -4.19921875 7.26171875 C-8.04919525 5.3367305 -11.20560353 5.47728568 -14.57421875 8.13671875 Z " fill="#000000" transform="translate(243.19921875,15.73828125)"/>
<path d="M0 0 C3.3818667 2.75795838 5.96147573 5.37322935 6.86328125 9.76953125 C6.53328125 11.41953125 6.20328125 13.06953125 5.86328125 14.76953125 C-3.04671875 17.73953125 -3.04671875 17.73953125 -12.13671875 20.76953125 C-7.12038957 20.76953125 -4.6142412 20.47525409 -0.13671875 18.76953125 C1.92578125 20.51953125 1.92578125 20.51953125 3.86328125 22.76953125 C3.92578125 24.83203125 3.92578125 24.83203125 2.86328125 26.76953125 C-1.01452534 29.63756542 -3.85449393 30.17805152 -8.63671875 30.14453125 C-9.74015625 30.15226562 -10.84359375 30.16 -11.98046875 30.16796875 C-16.73994107 29.56714427 -19.26179554 27.76597158 -22.38671875 24.20703125 C-26.08173533 19.06040102 -25.71887646 13.95495691 -25.13671875 7.76953125 C-22.98684647 3.230912 -20.65768863 0.91699194 -16.13671875 -1.23046875 C-10.83184984 -2.88335422 -4.88291703 -2.81191748 0 0 Z M-14.57421875 9.26953125 C-15.08984375 10.09453125 -15.60546875 10.91953125 -16.13671875 11.76953125 C-12.65800254 12.92910332 -11.7945223 12.54409776 -8.44921875 11.33203125 C-7.64097656 11.04457031 -6.83273438 10.75710937 -6 10.4609375 C-5.38511719 10.23277344 -4.77023438 10.00460938 -4.13671875 9.76953125 C-4.46671875 8.77953125 -4.79671875 7.78953125 -5.13671875 6.76953125 C-10.46915918 6.16477686 -10.46915918 6.16477686 -14.57421875 9.26953125 Z " fill="#000000" transform="translate(209.13671875,15.23046875)"/>
<path d="M0 0 C8.58 0 17.16 0 26 0 C26 7.88225806 26 7.88225806 21.75 12.6875 C20.96109375 13.59886719 20.1721875 14.51023437 19.359375 15.44921875 C17.29290117 17.68333698 15.15192918 19.84807082 13 22 C17.29 22.33 21.58 22.66 26 23 C26 25.64 26 28.28 26 31 C17.09 31 8.18 31 -1 31 C-1 22 -1 22 0.1015625 19.78491211 C0.60429688 19.28741455 1.10703125 18.78991699 1.625 18.27734375 C2.16640625 17.71982422 2.7078125 17.16230469 3.265625 16.58789062 C3.83796875 16.04326172 4.4103125 15.49863281 5 14.9375 C5.57234375 14.35806641 6.1446875 13.77863281 6.734375 13.18164062 C8.13646801 11.76786351 9.56562455 10.38101326 11 9 C7.37 8.67 3.74 8.34 0 8 C0 5.36 0 2.72 0 0 Z " fill="#000000" transform="translate(73,14)"/>
<path d="M0 0 C3.3 0 6.6 0 10 0 C10 10.23 10 20.46 10 31 C6.7 31 3.4 31 0 31 C0 20.77 0 10.54 0 0 Z " fill="#000000" transform="translate(102,14)"/>
<path d="M0 0 C2 2 2 2 2.3125 4.9375 C2 8 2 8 0.875 9.9375 C-1 11 -1 11 -4.0625 10.8125 C-7 10 -7 10 -9 8 C-9.375 5.0625 -9.375 5.0625 -9 2 C-6.12524616 -1.3006433 -4.03854228 -1.38160657 0 0 Z " fill="#000000" transform="translate(110,2)"/>
</svg>
